<svg xmlns="http://www.w3.org/2000/svg" xmlns:xlink="http://www.w3.org/1999/xlink" xmlns:inkscape="http://www.inkscape.org/namespaces/inkscape" version="1.1" width="612" height="792" viewBox="0 0 612 792">
<defs>
<clipPath id="clip_0">
<path transform="matrix(1,0,0,-1,0,792)" d="M.00000912 0H612V792H.00000912Z" clip-rule="evenodd"/>
</clipPath>
<clipPath id="clip_1">
<path transform="matrix(1,0,0,-1,0,792)" d="M.00000912 0H612V792H.00000912Z" clip-rule="evenodd"/>
</clipPath>
<clipPath id="clip_2">
<path transform="matrix(1,0,0,-1,0,792)" d="M508.27 653.23H565.174V667.14999H508.27Z" clip-rule="evenodd"/>
</clipPath>
<clipPath id="clip_3">
<path transform="matrix(1,0,0,-1,0,792)" d="M508.27 653.23H565.174V667.14999H508.27Z" clip-rule="evenodd"/>
</clipPath>
<clipPath id="clip_4">
<path transform="matrix(1,0,0,-1,0,792)" d="M0 .000061035H612V792.00009H0Z" clip-rule="evenodd"/>
</clipPath>
<clipPath id="clip_5">
<path transform="matrix(1,0,0,-1,0,792)" d="M0 .000061035H612V792.00009H0Z" clip-rule="evenodd"/>
</clipPath>
<clipPath id="clip_6">
<path transform="matrix(1,0,0,-1,0,792)" d="M0 .000061035H612V792.00009H0Z" clip-rule="evenodd"/>
</clipPath>
<clipPath id="clip_7">
<path transform="matrix(1,0,0,-1,0,792)" d="M0 .000061035H612V792.00009H0Z" clip-rule="evenodd"/>
</clipPath>
<clipPath id="clip_8">
<path transform="matrix(1,0,0,-1,0,792)" d="M0 .000061035H612V792.00009H0Z" clip-rule="evenodd"/>
</clipPath>
<clipPath id="clip_9">
<path transform="matrix(1,0,0,-1,0,792)" d="M0 .000061035H612V792.00009H0Z" clip-rule="evenodd"/>
</clipPath>
<clipPath id="clip_10">
<path transform="matrix(1,0,0,-1,0,792)" d="M0 .000061035H612V792.00009H0Z" clip-rule="evenodd"/>
</clipPath>
<clipPath id="clip_11">
<path transform="matrix(1,0,0,-1,0,792)" d="M80.424 113.33H321.724V129.41H80.424Z" clip-rule="evenodd"/>
</clipPath>
<clipPath id="clip_12">
<path transform="matrix(1,0,0,-1,0,792)" d="M80.424 113.33H321.724V129.41H80.424Z" clip-rule="evenodd"/>
</clipPath>
<clipPath id="clip_13">
<path transform="matrix(1,0,0,-1,0,792)" d="M414.14 63.864H571.65V76.824H414.14Z" clip-rule="evenodd"/>
</clipPath>
<clipPath id="clip_14">
<path transform="matrix(1,0,0,-1,0,792)" d="M414.14 63.864H571.65V76.824H414.14Z" clip-rule="evenodd"/>
</clipPath>
<clipPath id="clip_15">
<path transform="matrix(1,0,0,-1,0,792)" d="M414.14 63.864H571.65V76.824H414.14Z" clip-rule="evenodd"/>
</clipPath>
<clipPath id="clip_16">
<path transform="matrix(1,0,0,-1,0,792)" d="M414.14 63.864H571.65V76.824H414.14Z" clip-rule="evenodd"/>
</clipPath>
<clipPath id="clip_17">
<path transform="matrix(1,0,0,-1,0,792)" d="M414.14 63.864H571.65V76.824H414.14Z" clip-rule="evenodd"/>
</clipPath>
<clipPath id="clip_18">
<path transform="matrix(1,0,0,-1,0,792)" d="M414.14 63.864H571.65V76.824H414.14Z" clip-rule="evenodd"/>
</clipPath>
<clipPath id="clip_19">
<path transform="matrix(1,0,0,-1,0,792)" d="M414.14 63.864H571.65V76.824H414.14Z" clip-rule="evenodd"/>
</clipPath>
<clipPath id="clip_20">
<path transform="matrix(1,0,0,-1,0,792)" d="M414.14 63.864H571.65V76.824H414.14Z" clip-rule="evenodd"/>
</clipPath>
<clipPath id="clip_21">
<path transform="matrix(1,0,0,-1,0,792)" d="M414.14 63.864H571.65V76.824H414.14Z" clip-rule="evenodd"/>
</clipPath>
<clipPath id="clip_22">
<path transform="matrix(1,0,0,-1,0,792)" d="M414.14 63.864H571.65V76.824H414.14Z" clip-rule="evenodd"/>
</clipPath>
<clipPath id="clip_23">
<path transform="matrix(1,0,0,-1,0,792)" d="M414.14 63.864H571.65V76.824H414.14Z" clip-rule="evenodd"/>
</clipPath>
<clipPath id="clip_24">
<path transform="matrix(1,0,0,-1,0,792)" d="M414.14 63.864H571.65V76.824H414.14Z" clip-rule="evenodd"/>
</clipPath>
<clipPath id="clip_25">
<path transform="matrix(1,0,0,-1,0,792)" d="M414.14 63.864H571.65V76.824H414.14Z" clip-rule="evenodd"/>
</clipPath>
<clipPath id="clip_26">
<path transform="matrix(1,0,0,-1,0,792)" d="M414.14 63.864H571.65V76.824H414.14Z" clip-rule="evenodd"/>
</clipPath>
<clipPath id="clip_27">
<path transform="matrix(1,0,0,-1,0,792)" d="M414.14 63.864H571.65V76.824H414.14Z" clip-rule="evenodd"/>
</clipPath>
<clipPath id="clip_28">
<path transform="matrix(1,0,0,-1,0,792)" d="M414.14 63.864H571.65V76.824H414.14Z" clip-rule="evenodd"/>
</clipPath>
<clipPath id="clip_29">
<path transform="matrix(1,0,0,-1,0,792)" d="M414.14 63.864H571.65V76.824H414.14Z" clip-rule="evenodd"/>
</clipPath>
<clipPath id="clip_30">
<path transform="matrix(1,0,0,-1,0,792)" d="M414.14 53.784H519.31V66.744H414.14Z" clip-rule="evenodd"/>
</clipPath>
<clipPath id="clip_31">
<path transform="matrix(1,0,0,-1,0,792)" d="M414.14 53.784H519.31V66.744H414.14Z" clip-rule="evenodd"/>
</clipPath>
<clipPath id="clip_32">
<path transform="matrix(1,0,0,-1,0,792)" d="M414.14 53.784H519.31V66.744H414.14Z" clip-rule="evenodd"/>
</clipPath>
<clipPath id="clip_33">
<path transform="matrix(1,0,0,-1,0,792)" d="M414.14 53.784H519.31V66.744H414.14Z" clip-rule="evenodd"/>
</clipPath>
<clipPath id="clip_34">
<path transform="matrix(1,0,0,-1,0,792)" d="M414.14 53.784H519.31V66.744H414.14Z" clip-rule="evenodd"/>
</clipPath>
<clipPath id="clip_35">
<path transform="matrix(1,0,0,-1,0,792)" d="M414.14 53.784H519.31V66.744H414.14Z" clip-rule="evenodd"/>
</clipPath>
<clipPath id="clip_36">
<path transform="matrix(1,0,0,-1,0,792)" d="M414.14 53.784H519.31V66.744H414.14Z" clip-rule="evenodd"/>
</clipPath>
<clipPath id="clip_37">
<path transform="matrix(1,0,0,-1,0,792)" d="M273.22 60.024H381.27003V72.984H273.22Z" clip-rule="evenodd"/>
</clipPath>
<clipPath id="clip_38">
<path transform="matrix(1,0,0,-1,0,792)" d="M273.22 60.024H381.27003V72.984H273.22Z" clip-rule="evenodd"/>
</clipPath>
<clipPath id="clip_39">
<path transform="matrix(1,0,0,-1,0,792)" d="M273.22 60.024H381.27003V72.984H273.22Z" clip-rule="evenodd"/>
</clipPath>
<clipPath id="clip_40">
<path transform="matrix(1,0,0,-1,0,792)" d="M150.77 59.784H237.698V72.744H150.77Z" clip-rule="evenodd"/>
</clipPath>
<clipPath id="clip_41">
<path transform="matrix(1,0,0,-1,0,792)" d="M150.77 59.784H237.698V72.744H150.77Z" clip-rule="evenodd"/>
</clipPath>
<clipPath id="clip_42">
<path transform="matrix(1,0,0,-1,0,792)" d="M150.77 59.784H237.698V72.744H150.77Z" clip-rule="evenodd"/>
</clipPath>
<clipPath id="clip_43">
<path transform="matrix(1,0,0,-1,0,792)" d="M150.77 59.784H237.698V72.744H150.77Z" clip-rule="evenodd"/>
</clipPath>
<clipPath id="clip_44">
<path transform="matrix(1,0,0,-1,0,792)" d="M150.77 59.784H237.698V72.744H150.77Z" clip-rule="evenodd"/>
</clipPath>
<clipPath id="clip_45">
<path transform="matrix(1,0,0,-1,0,792)" d="M150.77 59.784H237.698V72.744H150.77Z" clip-rule="evenodd"/>
</clipPath>
<clipPath id="clip_46">
<path transform="matrix(1,0,0,-1,0,792)" d="M150.77 59.784H237.698V72.744H150.77Z" clip-rule="evenodd"/>
</clipPath>
<clipPath id="clip_47">
<path transform="matrix(1,0,0,-1,0,792)" d="M150.77 59.784H237.698V72.744H150.77Z" clip-rule="evenodd"/>
</clipPath>
</defs>
<g>
<g clip-path="url(#clip_0)">
<text xml:space="preserve" transform="matrix(1 0 -0 1 0 792)" font-size="12" font-family="Calibri"><tspan y="-641.47" x="60.504"> </tspan></text>
</g>
<g clip-path="url(#clip_1)">
<text xml:space="preserve" transform="matrix(1 0 -0 1 0 792)" font-size="12" font-family="Calibri"><tspan y="-624.67" x="80.664"> </tspan></text>
</g>
<g clip-path="url(#clip_2)">
<g clip-path="url(#clip_3)">
<text xml:space="preserve" transform="matrix(1 0 -0 1 0 792)" font-size="12" font-family="Calibri"><tspan y="-655.63" x="508.27"> </tspan></text>
</g>
</g>
<g clip-path="url(#clip_4)">
<path transform="matrix(1,0,0,-1,0,792)" d="M293.15 792H612V656.75L513.56 755.19H319.13L293.15 792Z" fill="#254169" fill-rule="evenodd"/>
</g>
<path transform="matrix(1,0,0,-1,0,792)" d="M.2 792H285.46L311.45 755.2H.2V792Z" fill="#1ed891" fill-rule="evenodd"/>
<g clip-path="url(#clip_5)">
<path transform="matrix(1,0,0,-1,0,792)" d="M560.66 792H610.7L573.89 755.18 612 717.06V667L523.85 755.18 560.66 792Z" fill="#ffffff" fill-rule="evenodd"/>
</g>
<g clip-path="url(#clip_6)">
<path transform="matrix(1,0,0,-1,0,792)" d="M568.52 792H602.81L566 755.18 612 709.19V674.9L589.26 697.64 531.7 755.18 568.52 792Z" fill="#1ed891" fill-rule="evenodd"/>
</g>
<path transform="matrix(1,0,0,-1,0,792)" d="M61.15 683.35H69.85V677.33L68.906 678.58H65.173L69.85 672.45V669.8L65.173 663.67H68.906L69.85 664.92V658.9H61.15V683.35Z" fill="#1ed891" fill-rule="evenodd"/>
<path transform="matrix(1,0,0,-1,0,792)" d="M69.85 672.45 70.9 671.12 69.85 669.8V672.45Z" fill="#1ed891" fill-rule="evenodd"/>
<path transform="matrix(1,0,0,-1,0,792)" d="M69.85 683.35H70.647C71.797 683.35 72.888 683.13 73.913 682.69 74.943 682.25 75.834 681.65 76.593 680.89 77.352 680.13 77.951 679.25 78.393 678.24 78.831 677.22 79.05 676.14 79.05 674.99V667.29C79.05 666.15 78.831 665.06 78.393 664.03 77.951 663.01 77.352 662.11 76.593 661.35 75.834 660.6 74.943 660 73.913 659.56 72.888 659.12 71.797 658.9 70.647 658.9H69.85V664.92L74.531 671.12 69.85 677.33V683.35Z" fill="#1ed891" fill-rule="evenodd"/>
<path transform="matrix(1,0,0,-1,0,792)" d="M87.65 675.95V673.2L86.73 673.02C86.039 672.72 85.438 672.32 84.924 671.8 84.409 671.29 84.004 670.69 83.706 670.01 83.411 669.32 83.266 668.59 83.266 667.81V667.26C83.266 666.57 83.375 665.93 83.596 665.35L87.65 669.24V665.44L85.182 663.07C85.67 662.63 86.244 662.28 86.895 662.02L87.65 661.88V659.15L85.658 659.55C84.629 659.99 83.729 660.59 82.971 661.35 82.209 662.11 81.608 662.99 81.164 664.01 80.724 665.03 80.5 666.11 80.5 667.26V667.81C80.5 668.96 80.724 670.04 81.164 671.07 81.608 672.1 82.209 672.99 82.971 673.75 83.729 674.51 84.629 675.11 85.658 675.55L87.65 675.95Z" fill="#254169" fill-rule="evenodd"/>
<path transform="matrix(1,0,0,-1,0,792)" d="M87.65 661.9 88.926 661.66H94.8V658.9H88.926L87.65 659.16V661.9Z" fill="#254169" fill-rule="evenodd"/>
<path transform="matrix(1,0,0,-1,0,792)" d="M88.926 676.2H94.8V672.36L87.65 665.45V669.25L91.992 673.45H88.926L87.65 673.2V675.94L88.926 676.2Z" fill="#254169" fill-rule="evenodd"/>
<path transform="matrix(1,0,0,-1,0,792)" d="M96.3 676.2H99.26L104.67 663.04 110.09 676.2H113.05C112.76 675.46 112.4 674.61 111.99 673.62 111.58 672.62 111.14 671.57 110.67 670.46 110.21 669.35 109.74 668.22 109.26 667.07 108.79 665.92 108.34 664.82 107.91 663.77 107.48 662.72 107.09 661.78 106.74 660.93 106.38 660.09 106.11 659.41 105.92 658.9H103.43C103.21 659.41 102.93 660.1 102.57 660.97 102.22 661.84 101.82 662.8 101.38 663.87 100.94 664.93 100.48 666.05 99.993 667.22 99.506 668.39 99.034 669.53 98.585 670.65 98.133 671.76 97.708 672.8 97.302 673.76 96.9 674.73 96.565 675.54 96.3 676.2Z" fill="#254169" fill-rule="evenodd"/>
<path transform="matrix(1,0,0,-1,0,792)" d="M114.5 676.2H117.25V667.28C117.25 666.5 117.4 665.77 117.69 665.09 117.98 664.4 118.39 663.8 118.9 663.29 119.41 662.78 120.01 662.38 120.7 662.08 121.38 661.8 122.12 661.65 122.9 661.65H127.45V667.82C127.45 668.6 127.3 669.33 127 670.01 126.71 670.7 126.31 671.3 125.8 671.8 125.28 672.32 124.69 672.72 124 673.01 123.31 673.3 122.58 673.45 121.8 673.45H119.23V676.2H121.8C122.95 676.2 124.04 675.98 125.07 675.54 126.09 675.1 126.98 674.5 127.74 673.74 128.5 672.98 129.1 672.09 129.54 671.07 129.98 670.04 130.2 668.95 130.2 667.81V658.9H122.9C121.75 658.9 120.66 659.12 119.63 659.56 118.61 660 117.72 660.6 116.96 661.35 116.2 662.11 115.6 663 115.16 664.01 114.72 665.03 114.5 666.11 114.5 667.25V676.2Z" fill="#254169" fill-rule="evenodd"/>
<path transform="matrix(1,0,0,-1,0,792)" d="M131.65 676.2H137.55C138.7 676.2 139.79 675.98 140.82 675.54 141.84 675.1 142.73 674.5 143.49 673.74 144.25 672.98 144.85 672.09 145.29 671.07 145.73 670.04 145.95 668.95 145.95 667.81V658.9H143.2V667.81C143.2 668.59 143.05 669.32 142.76 670.01 142.47 670.69 142.06 671.29 141.55 671.8 141.04 672.31 140.44 672.72 139.75 673.01 139.07 673.3 138.33 673.45 137.55 673.45H134.4V658.9H131.65V676.2Z" fill="#254169" fill-rule="evenodd"/>
<path transform="matrix(1,0,0,-1,0,792)" d="M146.3 676.2H151.55V658.9H148.78V673.45H146.3V676.2Z" fill="#254169" fill-rule="evenodd"/>
<path transform="matrix(1,0,0,-1,0,792)" d="M177.3 676.2C177.87 676.2 178.36 675.99 178.77 675.57 179.19 675.16 179.4 674.66 179.4 674.1 179.4 673.51 179.19 673.01 178.77 672.61 178.36 672.2 177.87 672 177.3 672 176.71 672 176.21 672.2 175.81 672.61 175.4 673.01 175.2 673.51 175.2 674.1 175.2 674.66 175.4 675.16 175.81 675.57 176.21 675.99 176.71 676.2 177.3 676.2Z" fill="#1ed891" fill-rule="evenodd"/>
<path transform="matrix(1,0,0,-1,0,792)" d="M162.1 676.2H168V669.78H165.25V673.45H162.1C161.32 673.45 160.58 673.3 159.9 673.01 159.21 672.72 158.61 672.32 158.1 671.8 157.59 671.3 157.18 670.7 156.89 670.01 156.6 669.33 156.45 668.6 156.45 667.82V667.27C156.45 666.5 156.6 665.77 156.89 665.08 157.18 664.4 157.59 663.8 158.1 663.29 158.61 662.78 159.21 662.38 159.9 662.08 160.58 661.8 161.32 661.65 162.1 661.65H168V658.9H162.1C160.95 658.9 159.86 659.12 158.83 659.56 157.81 660 156.91 660.6 156.15 661.35 155.4 662.11 154.8 663 154.36 664.01 153.92 665.03 153.7 666.11 153.7 667.25V667.81C153.7 668.95 153.92 670.04 154.36 671.07 154.8 672.09 155.4 672.98 156.15 673.74 156.91 674.5 157.81 675.1 158.83 675.54 159.86 675.98 160.95 676.2 162.1 676.2Z" fill="#254169" fill-rule="evenodd"/>
<path transform="matrix(1,0,0,-1,0,792)" d="M170.45 676.2H173.2V673.3C173.2 672.82 173.3 672.37 173.51 671.96 173.71 671.56 174.02 671.18 174.43 670.81 174.83 670.44 175.32 670.08 175.91 669.73 176.5 669.38 177.15 669 177.89 668.61 178.62 668.22 179.36 667.8 180.1 667.35 180.85 666.9 181.52 666.39 182.12 665.83 182.72 665.26 183.2 664.62 183.58 663.88 183.96 663.15 184.15 662.3 184.15 661.32V658.9H181.4V661.32C181.4 661.83 181.29 662.3 181.07 662.73 180.85 663.15 180.53 663.56 180.12 663.94 179.71 664.32 179.2 664.69 178.6 665.05 178 665.42 177.32 665.81 176.57 666.23 175.86 666.62 175.14 667.04 174.41 667.47 173.68 667.91 173.02 668.41 172.43 668.96 171.84 669.51 171.37 670.14 171 670.85 170.63 671.56 170.45 672.37 170.45 673.3V676.2Z" fill="#254169" fill-rule="evenodd"/>
<path transform="matrix(1,0,0,-1,0,792)" d="M173.31 666.5C174.24 665.92 175.11 665.41 175.92 665H175.95C175.07 664.44 174.39 663.88 173.91 663.32 173.44 662.76 173.2 662.09 173.2 661.31V658.9H170.45V661.31C170.45 662.5 170.72 663.51 171.27 664.33 171.83 665.14 172.5 665.86 173.31 666.5Z" fill="#1ed891" fill-rule="evenodd"/>
<path transform="matrix(1,0,0,-1,0,792)" d="M181.41 676.2H184.15V673.3C184.15 672.13 183.88 671.14 183.33 670.35 182.78 669.55 182.1 668.84 181.3 668.2 180.86 668.49 180.42 668.76 179.98 669.01 179.54 669.25 179.12 669.49 178.7 669.74 179.55 670.3 180.22 670.85 180.7 671.39 181.17 671.93 181.41 672.57 181.41 673.3V676.2Z" fill="#1ed891" fill-rule="evenodd"/>
<path transform="matrix(1,0,0,-1,0,792)" d="M81.124 687.25H83.5L79.88 682.5 83.5 677.75H81.124L77.55 682.5 81.124 687.25Z" fill="#1ed891" fill-rule="evenodd"/>
<g clip-path="url(#clip_7)">
<path transform="matrix(1,0,0,-1,0,792)" d="M.2 135.25 98.638 36.811H293.06L319.05 0H.2V135.25Z" fill="#254169" fill-rule="evenodd"/>
</g>
<g clip-path="url(#clip_8)">
<path transform="matrix(1,0,0,-1,0,792)" d="M300.75 36.8H612V0H326.74L300.75 36.8Z" fill="#1ed891" fill-rule="evenodd"/>
</g>
<g clip-path="url(#clip_9)">
<path transform="matrix(1,0,0,-1,0,792)" d="M.2 125 88.35 36.822 51.541 0H1.4997L38.305 36.822 .2 74.942V125Z" fill="#ffffff" fill-rule="evenodd"/>
</g>
<g clip-path="url(#clip_10)">
<path transform="matrix(1,0,0,-1,0,792)" d="M.2 117.1 22.942 94.365 80.5 36.817 43.676 0H9.3847L46.205 36.817 .2 82.813V85.271 117.1Z" fill="#1ed891" fill-rule="evenodd"/>
</g>
<g clip-path="url(#clip_11)">
<g clip-path="url(#clip_12)">
<text xml:space="preserve" transform="matrix(1 0 -0 1 0 792)" font-size="12" font-family="Calibri"><tspan y="-117.89" x="80.424"> </tspan></text>
</g>
</g>
<g clip-path="url(#clip_13)">
<g clip-path="url(#clip_14)">
<text xml:space="preserve" transform="matrix(1.0540873 0 -0 .94868806 0 792)" font-size="8.854333" font-family="Calibri"><tspan y="-72.12487" x="392.88969 398.80943">Of</tspan></text>
</g>
<g clip-path="url(#clip_15)">
<text xml:space="preserve" transform="matrix(1.0540873 0 -0 .94868806 0 792)" font-size="8.854333" font-family="Calibri"><tspan y="-72.12487" x="401.57017 404.30238">fi</tspan></text>
</g>
<g clip-path="url(#clip_16)">
<text xml:space="preserve" transform="matrix(1.0540873 0 -0 .94868806 0 792)" font-size="8.854333" font-family="Calibri"><tspan y="-72.12487" x="406.57923 410.45005">ce</tspan></text>
</g>
<g clip-path="url(#clip_17)">
<text xml:space="preserve" transform="matrix(1.0540873 0 -0 .94868806 0 792)" font-size="8.854333" font-family="Calibri"><tspan y="-72.12487" x="414.77589"> </tspan></text>
</g>
<g clip-path="url(#clip_18)">
<text xml:space="preserve" transform="matrix(1.0540873 0 -0 .94868806 0 792)" font-size="8.854333" font-family="Calibri"><tspan y="-72.12487" x="416.142">#</tspan></text>
</g>
<g clip-path="url(#clip_19)">
<text xml:space="preserve" transform="matrix(1.0540873 0 -0 .94868806 0 792)" font-size="8.854333" font-family="Calibri"><tspan y="-72.12487" x="420.6957">1</tspan></text>
</g>
<g clip-path="url(#clip_20)">
<text xml:space="preserve" transform="matrix(1.0540873 0 -0 .94868806 0 792)" font-size="8.854333" font-family="Calibri"><tspan y="-72.12487" x="425.02174"> </tspan></text>
</g>
<g clip-path="url(#clip_21)">
<text xml:space="preserve" transform="matrix(1.0540873 0 -0 .94868806 0 792)" font-size="8.854333" font-family="Calibri"><tspan y="-72.12487" x="425.24943">9</tspan></text>
</g>
<g clip-path="url(#clip_22)">
<text xml:space="preserve" transform="matrix(1.0540873 0 -0 .94868806 0 792)" font-size="8.854333" font-family="Calibri"><tspan y="-72.12487" x="429.8031"> </tspan></text>
</g>
<g clip-path="url(#clip_23)">
<text xml:space="preserve" transform="matrix(1.0540873 0 -0 .94868806 0 792)" font-size="8.854333" font-family="Calibri"><tspan y="-72.12487" x="432.08">2</tspan></text>
</g>
<g clip-path="url(#clip_24)">
<text xml:space="preserve" transform="matrix(1.040817 0 -0 .9607837 0 792)" font-size="5.74531" font-family="Calibri"><tspan y="-73.71482" x="442.2007 445.19828">nd</tspan></text>
</g>
<g clip-path="url(#clip_25)">
<text xml:space="preserve" transform="matrix(1.0540873 0 -0 .94868806 0 792)" font-size="8.854333" font-family="Calibri"><tspan y="-72.12487" x="442.55348"> </tspan></text>
</g>
<g clip-path="url(#clip_26)">
<text xml:space="preserve" transform="matrix(1.0540873 0 -0 .94868806 0 792)" font-size="8.854333" font-family="Calibri"><tspan y="-72.12487" x="444.83036 448.92106 451.18775 455.96025 460.7327 463.69007">Floor </tspan></text>
</g>
<g clip-path="url(#clip_27)">
<text xml:space="preserve" transform="matrix(1.0540873 0 -0 .94868806 0 792)" font-size="8.854333" font-family="Calibri"><tspan y="-72.12487" x="465.79634 469.2141 472.40165 473.76524 477.63459 481.05235 484.6915 485.83366 489.47279 493.34217 498.80528 502.44438 504.48976">Zainab Tower </tspan></text>
</g>
<g clip-path="url(#clip_28)">
<text xml:space="preserve" transform="matrix(1.0540873 0 -0 .94868806 0 792)" font-size="8.854333" font-family="Calibri"><tspan y="-72.12487" x="505.64125"> </tspan></text>
</g>
<g clip-path="url(#clip_29)">
<text xml:space="preserve" transform="matrix(1 0 -0 1 0 792)" font-size="12" font-family="Calibri"><tspan y="-68.424" x="535.87"> </tspan></text>
</g>
</g>
<g clip-path="url(#clip_30)">
<g clip-path="url(#clip_31)">
<text xml:space="preserve" transform="matrix(1.027424 0 -0 .9733081 0 792)" font-size="8.630361" font-family="Calibri"><tspan y="-59.94402" x="403.0858 410.55107 415.21147 419.87184 424.2992">Model</tspan></text>
</g>
<g clip-path="url(#clip_32)">
<text xml:space="preserve" transform="matrix(1.027424 0 -0 .9733081 0 792)" font-size="8.630361" font-family="Calibri"><tspan y="-59.94402" x="426.47438"> </tspan></text>
</g>
<g clip-path="url(#clip_33)">
<text xml:space="preserve" transform="matrix(1.027424 0 -0 .9733081 0 792)" font-size="8.630361" font-family="Calibri"><tspan y="-59.94402" x="427.6423 432.06968 436.73008 443.0302">Town</tspan></text>
</g>
<g clip-path="url(#clip_34)">
<text xml:space="preserve" transform="matrix(1.027424 0 -0 .9733081 0 792)" font-size="8.630361" font-family="Calibri"><tspan y="-59.94402" x="447.7314"> </tspan></text>
</g>
<g clip-path="url(#clip_35)">
<text xml:space="preserve" transform="matrix(1.027424 0 -0 .9733081 0 792)" font-size="8.630361" font-family="Calibri"><tspan y="-59.94402" x="449.13298 452.8613 457.05567 461.71604 466.37644 469.6387">Lahore</tspan></text>
</g>
<g clip-path="url(#clip_36)">
<text xml:space="preserve" transform="matrix(1 0 -0 1 0 792)" font-size="12" font-family="Calibri"><tspan y="-58.344" x="487.39"> </tspan></text>
</g>
</g>
<path transform="matrix(1,0,0,-1,0,792)" d="M389.1 75.95H406.05V59.15H389.1V75.95" fill="#254169" fill-rule="evenodd"/>
<path transform="matrix(1,0,0,-1,0,792)" d="M397.59 72.65 397.6 72.649V70.584L397.59 70.587C396.86 70.587 396.26 69.983 396.26 69.246 396.26 68.506 396.86 67.909 397.59 67.909L397.6 67.911V62.503L397.56 62.45C395.77 64.283 394.39 67.168 394.24 68.715 394.21 68.887 394.2 69.067 394.2 69.246 394.2 71.126 395.72 72.65 397.59 72.65Z" fill="#ffffff" fill-rule="evenodd"/>
<path transform="matrix(1,0,0,-1,0,792)" d="M397.6 72.65 398.9 72.384C400.11 71.867 400.95 70.656 400.95 69.246 400.95 68.809 400.86 68.387 400.72 67.998 400.48 67.22 399.95 65.779 398.85 64.137L397.6 62.5V67.91L398.53 68.299C398.77 68.541 398.92 68.875 398.92 69.246 398.92 69.615 398.77 69.95 398.53 70.193L397.6 70.585V72.65Z" fill="#ffffff" fill-rule="evenodd"/>
<g clip-path="url(#clip_37)">
<g clip-path="url(#clip_38)">
<text xml:space="preserve" transform="matrix(1.027424 0 -0 .9733081 0 792)" font-size="8.630361" font-family="Calibri"><tspan y="-66.35514" x="265.92723 270.3632 274.79057 278.7519 283.4123 287.8483 289.94548 293.6738 297.6351 301.83808 309.76939 313.9637 320.96296 324.9329 327.0301 329.12727 331.2331 334.9614 339.6218">devonicx0@gmail.com</tspan></text>
</g>
<g clip-path="url(#clip_39)">
<text xml:space="preserve" transform="matrix(1 0 -0 1 0 792)" font-size="12" font-family="Calibri"><tspan y="-64.584" x="356.3"> </tspan></text>
</g>
</g>
<path transform="matrix(1,0,0,-1,0,792)" d="M248.5 75.95H265.45V59.15H248.5V75.95" fill="#254169" fill-rule="evenodd"/>
<path transform="matrix(1,0,0,-1,0,792)" d="M261.92 70.55C261.94 70.488 261.97 70.403 262 70.317V64.799C261.97 64.713 261.94 64.628 261.92 64.55 260.91 65.554 259.91 66.55 258.9 67.55 259.91 68.554 260.91 69.55 261.92 70.55Z" fill="#ffffff" fill-rule="evenodd"/>
<path transform="matrix(1,0,0,-1,0,792)" d="M252.87 71.096C255.61 71.096 258.35 71.1 261.09 71.096 261.23 71.096 261.36 71.06 261.5 71.041 261.5 71.029 261.5 71.018 261.5 71.007 261.48 70.983 261.45 70.956 261.43 70.933 260.04 69.553 258.66 68.174 257.27 66.794 257.08 66.604 256.89 66.6 256.7 66.791 255.31 68.174 253.92 69.553 252.54 70.937 252.51 70.96 252.49 70.983 252.45 71.025 252.57 71.053 252.67 71.076 252.77 71.092 252.81 71.1 252.84 71.096 252.87 71.096Z" fill="#ffffff" fill-rule="evenodd"/>
<path transform="matrix(1,0,0,-1,0,792)" d="M258.44 67.1C259.46 66.098 260.47 65.099 261.5 64.078 261.38 64.05 261.28 64.027 261.18 64.007 261.14 64 261.1 64.003 261.05 64.003 258.33 64.003 255.6 64.007 252.87 64.003 252.73 64.003 252.59 64.019 252.45 64.089 253.46 65.091 254.48 66.09 255.49 67.092 255.75 66.838 256.02 66.57 256.29 66.3 256.57 66.028 256.9 65.95 257.27 66.075 257.4 66.118 257.54 66.21 257.64 66.312 257.89 66.546 258.13 66.796 258.37 67.037 258.4 67.065 258.43 67.088 258.44 67.1Z" fill="#ffffff" fill-rule="evenodd"/>
<path transform="matrix(1,0,0,-1,0,792)" d="M252.04 70.6C253.04 69.587 254.04 68.583 255.05 67.575 254.04 66.566 253.03 65.557 252.03 64.55 251.97 64.655 251.95 64.789 251.95 64.934 251.95 65.817 251.95 66.7 251.95 67.587 251.95 68.461 251.95 69.336 251.95 70.211 251.95 70.349 251.98 70.483 252.04 70.6Z" fill="#ffffff" fill-rule="evenodd"/>
<g clip-path="url(#clip_40)">
<g clip-path="url(#clip_41)">
<text xml:space="preserve" transform="matrix(1.027424 0 -0 .9733081 0 792)" font-size="8.630361" font-family="Calibri"><tspan y="-66.10857" x="146.74565 148.37677 151.8807 155.38463 158.88857">(+92)</tspan></text>
</g>
<g clip-path="url(#clip_42)">
<text xml:space="preserve" transform="matrix(1.027424 0 -0 .9733081 0 792)" font-size="8.630361" font-family="Calibri"><tspan y="-66.10857" x="160.78075"> </tspan></text>
</g>
<g clip-path="url(#clip_43)">
<text xml:space="preserve" transform="matrix(1.027424 0 -0 .9733081 0 792)" font-size="8.630361" font-family="Calibri"><tspan y="-66.10857" x="162.88309 166.38703 169.89096 173.16187 174.32697 175.49207 178.99599 182.49993 186.00385">304  014 </tspan></text>
</g>
<g clip-path="url(#clip_44)">
<text xml:space="preserve" transform="matrix(1.027424 0 -0 .9733081 0 792)" font-size="8.630361" font-family="Calibri"><tspan y="-66.10857" x="186.94327">-</tspan></text>
</g>
<g clip-path="url(#clip_45)">
<text xml:space="preserve" transform="matrix(1.027424 0 -0 .9733081 0 792)" font-size="8.630361" font-family="Calibri"><tspan y="-66.10857" x="188.81201"> </tspan></text>
</g>
<g clip-path="url(#clip_46)">
<text xml:space="preserve" transform="matrix(1.027424 0 -0 .9733081 0 792)" font-size="8.630361" font-family="Calibri"><tspan y="-66.10857" x="189.97998 193.48432 196.98865 200.49298">2997</tspan></text>
</g>
<g clip-path="url(#clip_47)">
<text xml:space="preserve" transform="matrix(1 0 -0 1 0 792)" font-size="12" font-family="Calibri"><tspan y="-64.344" x="209.59"> </tspan></text>
</g>
</g>
<path transform="matrix(1,0,0,-1,0,792)" d="M126.1 75.95H143.05V59.15H126.1V75.95" fill="#254169" fill-rule="evenodd"/>
<path transform="matrix(1,0,0,-1,0,792)" d="M130.98 72.329C131.3 72.4 131.59 72.349 131.85 72.134 132.19 71.845 132.48 71.509 132.73 71.142 132.96 70.806 133.17 70.454 133.36 70.095 133.61 69.622 133.42 69.208 133.05 68.927 132.98 68.876 132.92 68.833 132.86 68.786 132.54 68.54 132.46 68.275 132.6 67.9 132.77 67.454 133.02 67.06 133.33 66.699 133.77 66.184 134.32 65.809 134.93 65.524 135.13 65.434 135.34 65.356 135.54 65.481 135.66 65.551 135.75 65.668 135.84 65.778 135.99 65.969 136.15 66.137 136.37 66.238 136.68 66.375 136.99 66.36 137.28 66.207 137.57 66.051 137.86 65.863 138.14 65.668 138.44 65.457 138.74 65.227 139.02 64.992 139.51 64.598 139.6 64.153 139.31 63.602 138.93 62.895 138.36 62.426 137.55 62.266 137.54 62.266 137.53 62.258 137.53 62.25H137.28C137.17 62.285 137.05 62.301 136.95 62.348 136.47 62.57 135.97 62.778 135.5 63.028 134.58 63.516 133.72 64.113 132.94 64.809 132.27 65.406 131.67 66.067 131.15 66.794 130.52 67.661 130.02 68.591 129.6 69.575 129.43 69.986 129.35 70.411 129.44 70.853 129.54 71.357 129.83 71.736 130.26 72.013 130.48 72.157 130.72 72.271 130.98 72.329Z" fill="#ffffff" fill-rule="evenodd"/>
<path transform="matrix(1,0,0,-1,0,792)" d="M135 72.892C135.5 72.9 135.99 72.841 136.46 72.681 137.6 72.299 138.48 71.585 139.11 70.571 139.57 69.845 139.79 69.053 139.8 68.199 139.79 68.062 139.79 67.921 139.76 67.79 139.73 67.614 139.59 67.52 139.39 67.512 139.2 67.5 139.04 67.579 138.99 67.743 138.95 67.864 138.95 67.992 138.93 68.117 138.84 68.987 138.63 69.818 138.11 70.543 137.73 71.054 137.24 71.406 136.66 71.648 136.11 71.869 135.54 71.998 134.96 72.061 134.68 72.092 134.55 72.225 134.55 72.448 134.56 72.72 134.72 72.888 135 72.892Z" fill="#ffffff" fill-rule="evenodd"/>
<path transform="matrix(1,0,0,-1,0,792)" d="M135.18 71.526C136.42 71.425 137.38 70.867 138 69.775 138.24 69.358 138.35 68.897 138.35 68.413 138.34 68.296 138.35 68.179 138.33 68.063 138.29 67.871 138.15 67.766 137.94 67.758 137.73 67.75 137.58 67.844 137.54 68.035 137.5 68.179 137.5 68.335 137.47 68.484 137.41 68.827 137.33 69.166 137.17 69.483 136.93 69.97 136.52 70.263 136.02 70.431 135.73 70.527 135.42 70.59 135.12 70.66 134.94 70.703 134.78 70.762 134.73 70.965 134.65 71.276 134.86 71.55 135.18 71.526Z" fill="#ffffff" fill-rule="evenodd"/>
<path transform="matrix(1,0,0,-1,0,792)" d="M135.47 70.15C135.9 70.122 136.23 69.921 136.52 69.627 136.82 69.328 137.02 68.982 137.04 68.549 137.05 68.443 137.04 68.329 137.02 68.219 136.97 68.034 136.84 67.928 136.66 67.912 136.47 67.9 136.31 67.995 136.25 68.172 136.21 68.266 136.2 68.368 136.18 68.467 136.12 68.875 135.87 69.158 135.47 69.249 135.37 69.273 135.28 69.288 135.19 69.316 135.04 69.363 134.93 69.461 134.91 69.631 134.9 69.812 134.99 70 135.14 70.067 135.24 70.111 135.36 70.126 135.47 70.15Z" fill="#ffffff" fill-rule="evenodd"/>
</g>
</svg>
