<svg width="42" height="40" viewBox="0 0 42 40" fill="none" xmlns="http://www.w3.org/2000/svg">
<g clip-path="url(#clip0_8_59)">
<path d="M41.4912 29.8043C41.3307 30.5675 41.2133 31.3464 40.9981 32.0939C40.4671 33.9057 39.4665 35.5449 38.0979 36.8454C38.0196 36.9276 37.9217 36.9941 37.7691 37.1233C37.7691 36.1174 37.8004 35.1898 37.7691 34.2661C37.7567 33.7165 37.6577 33.1723 37.4755 32.6536C37.2789 32.1405 36.9636 31.6811 36.5555 31.3131C36.1473 30.9451 35.6579 30.6789 35.1272 30.5362C34.381 30.3092 33.6295 30.0952 32.8728 29.8943C32.6654 29.8356 32.6106 29.7378 32.5949 29.5303C32.5691 29.3415 32.5915 29.1492 32.6599 28.9713C32.7283 28.7933 32.8406 28.6356 32.9863 28.5127C33.3451 28.1721 33.6281 27.7598 33.8169 27.3026C34.0057 26.8454 34.0961 26.3536 34.0822 25.8591V25.2133C34.8258 25.0841 34.8337 24.5362 34.8297 23.9491C34.8297 21.6869 33.5421 19.953 31.4755 19.4051C30.8362 19.2431 30.1688 19.2252 29.5217 19.3528C28.8746 19.4804 28.2639 19.7502 27.7338 20.1428C27.2038 20.5353 26.7677 21.0408 26.457 21.6226C26.1463 22.2044 25.9688 22.848 25.9374 23.5068C25.9374 23.7495 25.9374 23.9922 25.9374 24.2348C25.9374 24.8376 26.0626 25.0176 26.6732 25.225V25.8121C26.659 26.3531 26.7634 26.8906 26.9791 27.3869C27.1948 27.8832 27.5165 28.3263 27.9217 28.6849C28.0313 28.839 28.105 29.0156 28.1375 29.2018C28.17 29.388 28.1605 29.5792 28.1096 29.7613C28.0314 29.8324 27.9353 29.8811 27.8317 29.9022C27.1859 30.09 26.5362 30.2935 25.8748 30.4579C25.0158 30.6493 24.2516 31.137 23.7163 31.8355C23.1809 32.534 22.9086 33.3987 22.9472 34.2779C22.9472 35.1937 22.9472 36.1096 22.9472 37.1037C22.7984 36.9824 22.7006 36.9198 22.6223 36.8415C19.5382 33.6673 18.4736 29.91 19.7495 25.6791C21.0254 21.4481 23.9961 18.8141 28.3601 17.9804C29.836 17.7013 31.3533 17.7256 32.8194 18.0521C34.2856 18.3785 35.6699 19.0001 36.8879 19.879C38.106 20.758 39.1323 21.8758 39.9042 23.1643C40.6761 24.4529 41.1774 25.8851 41.3777 27.3738C41.4012 27.5577 41.4403 27.7417 41.4716 27.9256L41.4912 29.8043Z" fill="#00A2FF"/>
<path d="M0.00782776 8.91977H34.0587V16.8258C29.272 15.589 24.998 16.4892 21.4912 19.9844C17.9844 23.4795 17.0802 27.7613 18.3053 32.5675C18.1605 32.5675 18.0196 32.5675 17.8787 32.5675H2.45011C0.911945 32.5675 0.00782776 31.6634 0.00782776 30.1331V8.91977ZM2.97457 25.1742C2.97457 25.6478 2.97457 26.1213 2.97457 26.591C2.95876 26.7923 2.98512 26.9948 3.05198 27.1853C3.11883 27.3759 3.22471 27.5504 3.36284 27.6978C3.50096 27.8451 3.6683 27.962 3.85417 28.041C4.04003 28.12 4.24034 28.1594 4.44228 28.1566C5.44032 28.1918 6.44228 28.1918 7.44032 28.1566C7.63777 28.1568 7.83319 28.1169 8.01479 28.0394C8.19639 27.9619 8.36039 27.8484 8.49686 27.7057C8.63333 27.563 8.73944 27.3941 8.80876 27.2093C8.87809 27.0244 8.90919 26.8274 8.9002 26.6301C8.91585 25.6725 8.91585 24.7136 8.9002 23.7534C8.90673 23.5533 8.87213 23.3539 8.79851 23.1676C8.7249 22.9814 8.61386 22.8122 8.47225 22.6706C8.33063 22.529 8.16147 22.418 7.97522 22.3444C7.78897 22.2707 7.5896 22.2361 7.38944 22.2427C6.41618 22.2218 5.44423 22.2218 4.47358 22.2427C4.27667 22.2362 4.08051 22.2701 3.89718 22.3422C3.71384 22.4144 3.54721 22.5233 3.40753 22.6622C3.26785 22.8012 3.15808 22.9672 3.08497 23.1502C3.01185 23.3331 2.97694 23.5291 2.98239 23.726C2.96282 24.2035 2.97457 24.6889 2.97457 25.1742ZM16.2818 25.2055C16.2818 24.7202 16.2818 24.2309 16.2818 23.7456C16.2913 23.5522 16.2617 23.359 16.1948 23.1773C16.1279 22.9957 16.0251 22.8293 15.8925 22.6883C15.7598 22.5473 15.6002 22.4345 15.4229 22.3565C15.2457 22.2786 15.0546 22.2372 14.8611 22.2348C13.8356 22.2035 12.8063 22.2035 11.7808 22.2348C11.5905 22.2374 11.4026 22.2777 11.228 22.3535C11.0534 22.4292 10.8956 22.539 10.7638 22.6762C10.6319 22.8135 10.5287 22.9757 10.4601 23.1532C10.3915 23.3307 10.3588 23.5201 10.364 23.7104C10.364 24.6915 10.364 25.6765 10.364 26.6654C10.3499 27.0289 10.4782 27.3836 10.7216 27.6541C10.965 27.9245 11.3043 28.0893 11.6673 28.1135C12.771 28.1683 13.8826 28.1683 14.9863 28.1135C15.3497 28.0883 15.6888 27.9218 15.931 27.6497C16.1731 27.3776 16.299 27.0214 16.2818 26.6575C16.3053 26.1761 16.2975 25.7104 16.2975 25.2055H16.2818ZM5.93738 13.3425C5.45205 13.3425 4.96282 13.3425 4.4775 13.3425C4.28099 13.3344 4.0849 13.3667 3.90139 13.4375C3.71789 13.5083 3.55088 13.616 3.41071 13.754C3.27054 13.8919 3.1602 14.0572 3.08652 14.2396C3.01284 14.4219 2.9774 14.6175 2.98239 14.8141C2.96412 15.8004 2.96412 16.7854 2.98239 17.7691C2.97756 17.9662 3.01282 18.1623 3.08605 18.3454C3.15928 18.5285 3.26895 18.6948 3.40839 18.8343C3.54784 18.9737 3.71416 19.0834 3.89726 19.1566C4.08036 19.2298 4.27644 19.2651 4.47358 19.2603C5.44423 19.2759 6.41618 19.2759 7.38944 19.2603C7.58343 19.266 7.77662 19.233 7.95771 19.1632C8.1388 19.0934 8.30415 18.9882 8.44409 18.8537C8.58403 18.7192 8.69576 18.5582 8.77273 18.38C8.8497 18.2018 8.89038 18.0101 8.89237 17.8161C8.92368 16.8063 8.92368 15.7939 8.89237 14.7789C8.89144 14.5855 8.85169 14.3943 8.77549 14.2166C8.69928 14.0389 8.58816 13.8783 8.44873 13.7443C8.30929 13.6104 8.14438 13.5058 7.96377 13.4367C7.78315 13.3677 7.5905 13.3357 7.39726 13.3425C6.90803 13.3386 6.4227 13.3464 5.93738 13.3425ZM13.3346 13.3425C12.8376 13.3425 12.3366 13.3425 11.8395 13.3425C11.6465 13.3414 11.4553 13.3788 11.2769 13.4526C11.0985 13.5263 10.9366 13.6348 10.8007 13.7719C10.6648 13.9089 10.5575 14.0716 10.4852 14.2506C10.4129 14.4295 10.377 14.6211 10.3796 14.8141C10.3796 15.7965 10.3796 16.771 10.3796 17.7652C10.376 17.9584 10.4107 18.1504 10.4817 18.3301C10.5526 18.5099 10.6585 18.6738 10.7931 18.8124C10.9277 18.9511 11.0885 19.0617 11.266 19.1379C11.4436 19.2141 11.6346 19.2543 11.8278 19.2564C12.8376 19.2799 13.8513 19.2799 14.8611 19.2564C15.0507 19.2548 15.2382 19.216 15.4129 19.1419C15.5875 19.0679 15.7458 18.9603 15.8789 18.8251C16.0119 18.6899 16.117 18.5298 16.1881 18.354C16.2593 18.1782 16.2951 17.9901 16.2935 17.8004C16.3092 16.801 16.3092 15.803 16.2935 14.8063C16.2962 14.6135 16.2601 14.4221 16.1874 14.2436C16.1148 14.065 16.007 13.9028 15.8705 13.7667C15.7339 13.6305 15.5715 13.5232 15.3927 13.451C15.214 13.3788 15.0225 13.3432 14.8297 13.3464C14.3327 13.3346 13.8317 13.3464 13.3346 13.3464V13.3425ZM20.7202 19.2564V17.7652H19.3112V14.8415H22.2466V16.2544H23.6986C23.6986 15.7025 23.7378 15.1742 23.6986 14.6536C23.6735 14.292 23.5096 13.9541 23.2412 13.7105C22.9728 13.4669 22.6207 13.3364 22.2583 13.3464C21.259 13.3307 20.2609 13.3307 19.2642 13.3464C18.9002 13.3325 18.5452 13.4621 18.2758 13.7073C18.0064 13.9526 17.8441 14.2938 17.8239 14.6575C17.773 15.7456 17.7769 16.8415 17.8239 17.9335C17.8423 18.282 17.9909 18.6109 18.2402 18.8552C18.4895 19.0994 18.8214 19.2412 19.1703 19.2525C19.6673 19.2877 20.18 19.2603 20.7202 19.2603V19.2564ZM31.0881 14.8102C31.0959 14.6231 31.0663 14.4363 31.0009 14.2608C30.9355 14.0853 30.8358 13.9246 30.7074 13.7882C30.579 13.6519 30.4247 13.5425 30.2535 13.4666C30.0823 13.3908 29.8976 13.3499 29.7104 13.3464C28.6732 13.3464 27.6321 13.3464 26.5793 13.3464C26.2788 13.3465 25.9869 13.4466 25.7495 13.6308C25.5121 13.815 25.3428 14.073 25.2681 14.364C25.1981 14.7515 25.1614 15.1444 25.1585 15.5382H26.6654V14.8219L31.0881 14.8102Z" fill="#00A2FF"/>
<path d="M0.0117417 7.38161C0.0117417 6.56752 -0.0195695 5.78474 0.0117417 5.00587C0.0378556 4.49042 0.250991 4.00217 0.611224 3.63257C0.971458 3.26297 1.45408 3.03738 1.96869 2.99805C3.76125 2.95499 5.55381 2.99805 7.39334 2.99805C7.39334 3.3229 7.39334 3.64384 7.44422 3.95695C7.49933 4.47806 7.7377 4.96268 8.11684 5.3244C8.49599 5.68613 8.99126 5.90146 9.51439 5.93201C10.0375 5.96256 10.5545 5.80635 10.9732 5.49121C11.3918 5.17608 11.685 4.72251 11.8004 4.21135C11.8524 3.81298 11.8772 3.41153 11.8748 3.00979H22.2231C22.1605 3.93347 22.2661 4.80235 23.045 5.42858C23.4775 5.78339 24.029 5.95977 24.5871 5.92173C25.9061 5.85519 26.544 4.99805 26.6849 2.99805C26.8063 2.99805 26.9354 2.99805 27.0763 2.99805H31.7339C32.0448 2.97774 32.3566 3.0235 32.6486 3.13233C32.9406 3.24116 33.2063 3.41058 33.4281 3.62946C33.6499 3.84833 33.8229 4.1117 33.9356 4.40222C34.0484 4.69275 34.0983 5.00386 34.0822 5.31507C34.0822 6 34.0822 6.68885 34.0822 7.40509L0.0117417 7.38161Z" fill="#00A2FF"/>
<path d="M34.8219 39.092V34.1135H33.3386V34.5519C33.3386 36.1174 33.3386 37.6556 33.3386 39.2055C33.3386 39.5068 33.2524 39.6282 32.9472 39.6947C31.2339 40.1077 29.4471 40.1077 27.7339 39.6947C27.4599 39.6321 27.3777 39.5108 27.3816 39.229C27.3816 37.6634 27.3816 36.1252 27.3816 34.5714V34.1174H25.91V39.0959C25.4129 38.8219 24.9746 38.591 24.5519 38.3366C24.4775 38.2935 24.4384 38.1331 24.4384 38.0274C24.4384 36.6928 24.4384 35.3542 24.4384 34.0196C24.4422 33.5699 24.587 33.1328 24.8525 32.7697C25.1179 32.4067 25.4905 32.1361 25.9178 31.9961C26.4266 31.8239 26.9472 31.683 27.4834 31.5538C27.6225 31.5389 27.7621 31.5766 27.8748 31.6595C28.4775 32.0939 29.0489 32.5479 29.6595 32.9902C30.2701 33.4325 30.4423 33.4442 31.0528 32.9902C31.6634 32.5362 32.227 32.09 32.8415 31.6634C32.9908 31.5703 33.1696 31.5368 33.3425 31.5695C33.8121 31.6751 34.2818 31.8121 34.7397 31.9609C35.1933 32.0941 35.5912 32.3711 35.8736 32.7502C36.156 33.1293 36.3075 33.5899 36.3053 34.0626C36.3053 35.3699 36.3053 36.681 36.3053 37.9765C36.2958 38.0541 36.2704 38.129 36.2307 38.1963C36.191 38.2637 36.1377 38.3221 36.0744 38.3679C35.6908 38.6458 35.2916 38.8376 34.8219 39.092Z" fill="#00A2FF"/>
<path d="M31.4912 24.1018C31.8395 24.3875 32.1605 24.6497 32.4736 24.9159C32.5229 24.9555 32.5618 25.0066 32.5871 25.0646C32.7316 25.6254 32.6794 26.2188 32.4394 26.7458C32.1994 27.2728 31.786 27.7017 31.2681 27.9609C30.9529 28.1005 30.6093 28.1641 30.265 28.1468C29.9207 28.1295 29.5853 28.0316 29.2857 27.8611C28.9861 27.6905 28.7307 27.4521 28.5401 27.1649C28.3494 26.8777 28.2288 26.5497 28.1879 26.2074C28.1682 25.8724 28.1682 25.5366 28.1879 25.2016C29.3793 25.2038 30.5389 24.8177 31.4912 24.1018Z" fill="#00A2FF"/>
<path d="M33.2211 23.6751C33.0814 23.5445 32.9507 23.4046 32.8297 23.2564C32.7291 23.0812 32.6377 22.9009 32.5558 22.7162C32.5146 22.6045 32.4474 22.5042 32.3597 22.4237C32.2719 22.3432 32.1662 22.2848 32.0513 22.2534C31.9365 22.222 31.8158 22.2185 31.6993 22.2432C31.5828 22.2679 31.4739 22.32 31.3816 22.3953C31.0724 22.5871 30.7749 22.7867 30.4736 23.002C29.5812 23.6055 28.4922 23.8462 27.4286 23.6751C27.429 23.1693 27.5598 22.6721 27.8083 22.2315C28.0568 21.791 28.4147 21.4219 28.8474 21.1599C29.2802 20.8979 29.7731 20.7519 30.2787 20.7358C30.7843 20.7198 31.2854 20.8344 31.7339 21.0685C32.2072 21.2988 32.6078 21.6552 32.8916 22.0986C33.1754 22.5419 33.3314 23.0549 33.3425 23.5812L33.2211 23.6751Z" fill="#00A2FF"/>
<path d="M8.90411 2.22701C8.90411 1.75343 8.90411 1.28376 8.90411 0.810179C8.89347 0.707175 8.90457 0.603085 8.9367 0.504645C8.96884 0.406205 9.02128 0.31561 9.09064 0.238718C9.16 0.161827 9.24473 0.100352 9.33934 0.0582762C9.43396 0.0162006 9.53637 -0.00553894 9.63992 -0.00553894C9.74347 -0.00553894 9.84587 0.0162006 9.94049 0.0582762C10.0351 0.100352 10.1198 0.161827 10.1892 0.238718C10.2585 0.31561 10.311 0.406205 10.3431 0.504645C10.3753 0.603085 10.3864 0.707175 10.3757 0.810179C10.3757 1.74169 10.3757 2.66928 10.3757 3.60079C10.3867 3.70533 10.3756 3.81102 10.343 3.91095C10.3104 4.01089 10.257 4.10282 10.1865 4.18076C10.116 4.25869 10.0298 4.32087 9.93356 4.36323C9.83735 4.4056 9.7333 4.4272 9.62818 4.42662C9.19765 4.42662 8.91193 4.10177 8.90411 3.58513C8.89628 3.0685 8.90411 2.68494 8.90411 2.22701Z" fill="#00A2FF"/>
<path d="M23.7182 2.227C23.7182 1.75342 23.7182 1.27984 23.7182 0.810174C23.7108 0.70877 23.7244 0.606933 23.7581 0.511018C23.7919 0.415102 23.845 0.327169 23.9142 0.252708C23.9835 0.178248 24.0673 0.118858 24.1605 0.0782475C24.2537 0.0376371 24.3543 0.0166779 24.456 0.0166779C24.5576 0.0166779 24.6582 0.0376371 24.7514 0.0782475C24.8446 0.118858 24.9285 0.178248 24.9977 0.252708C25.0669 0.327169 25.1201 0.415102 25.1538 0.511018C25.1875 0.606933 25.2011 0.70877 25.1937 0.810174C25.1937 1.76908 25.1937 2.72407 25.1937 3.68297C25.1991 3.78487 25.1835 3.88678 25.1478 3.98237C25.1121 4.07796 25.0571 4.16518 24.9863 4.23861C24.9154 4.31203 24.8302 4.37009 24.7359 4.40917C24.6417 4.44824 24.5404 4.46751 24.4384 4.46575C24.3391 4.46387 24.2413 4.44183 24.1509 4.40097C24.0604 4.36011 23.9793 4.30128 23.9123 4.22806C23.8453 4.15484 23.7939 4.06876 23.7612 3.97506C23.7285 3.88135 23.7152 3.78198 23.7221 3.68297C23.7221 3.19765 23.7221 2.71233 23.7221 2.227H23.7182Z" fill="#00A2FF"/>
<path d="M29.6986 29.6243H31.0528L31.2329 31.0333L30.364 31.6869L29.4873 31.0059L29.6986 29.6243Z" fill="#00A2FF"/>
<path d="M4.4814 23.7534H7.3816V26.6497H4.4814V23.7534Z" fill="#00A2FF"/>
<path d="M11.8748 26.6301V23.7534H14.8024V26.634L11.8748 26.6301Z" fill="#00A2FF"/>
<path d="M7.38944 14.8454V17.7534H4.47358V14.8454H7.38944Z" fill="#00A2FF"/>
<path d="M14.7984 17.7573H11.8748V14.8454H14.7984V17.7573Z" fill="#00A2FF"/>
</g>
<defs>
<clipPath id="clip0_8_59">
<rect width="41.4873" height="40" fill="white"/>
</clipPath>
</defs>
</svg>
