<svg width="39" height="40" viewBox="0 0 39 40" fill="none" xmlns="http://www.w3.org/2000/svg">
<g clip-path="url(#clip0_36_1357)">
<path d="M25.2042 34.9972C25.1792 34.9628 25.1465 34.9348 25.1089 34.9156C25.0713 34.8965 25.0297 34.8866 24.9877 34.8869C24.1399 35.0579 23.5206 34.7059 23.0497 34.0271C21.4851 34.3649 20.7836 33.8539 20.5096 32.1808C19.8308 32.0814 19.3003 31.7559 19.0209 31.0827C18.7416 30.4094 18.9191 29.8024 19.2461 29.2131C19.009 29.1977 18.813 29.2197 18.6355 29.1657C17.9512 28.9571 17.2615 28.7573 16.5978 28.4924C15.9482 28.2342 15.6591 27.5168 15.8811 26.805C16.639 24.3836 17.407 21.9652 18.1851 19.5497C18.4298 18.7926 19.1195 18.4461 19.8633 18.6668C20.4707 18.85 21.0835 19.0277 21.6681 19.2705C21.9377 19.3809 22.2322 19.6016 22.3632 19.851C22.5332 20.1821 22.7151 20.2549 23.0291 20.1821C23.1731 20.149 23.3214 20.1368 23.4622 20.1126C24.2991 19.968 25.1328 19.7417 25.9892 19.9216C26.3779 20.0033 26.7568 20.1324 27.1596 20.2461C27.1672 20.1093 27.1769 20.0022 27.1769 19.8941C27.1769 15.0756 27.1769 10.2564 27.1769 5.43648C27.1761 5.21446 27.1566 4.99291 27.1185 4.77431C26.8781 3.38704 25.4229 2.40591 24.102 2.76679V3.20825C24.102 5.05241 24.1129 6.89769 24.089 8.74185C24.0827 9.00682 23.9796 9.25986 23.8 9.45149C23.5585 9.67222 23.2727 9.49453 23.0291 9.32457C22.1131 8.68999 21.1885 8.06865 20.2812 7.42412C20.0516 7.26079 19.8936 7.23871 19.6467 7.41529C18.6972 8.09512 17.7228 8.73964 16.7656 9.40182C16.6312 9.50667 16.4719 9.57334 16.304 9.59505C16.1361 9.61676 15.9655 9.59275 15.8096 9.52544C15.4686 9.38087 15.5011 9.04646 15.5011 8.74185C15.5011 6.89658 15.5011 5.05169 15.5011 3.20715V2.71493C15.3354 2.70389 15.2293 2.68954 15.1232 2.68954C10.9905 2.68954 6.85785 2.68182 2.72518 2.68954C1.02101 2.68954 0 3.76338 0 5.52257C0 16.0681 0 26.6133 0 37.1581C0 38.924 1.0394 39.9857 2.76739 39.9857H19.7842C21.418 39.9857 23.0529 39.9945 24.6867 39.9857C25.8549 39.9768 26.9008 39.1347 27.0957 37.987C27.204 37.3579 27.1726 36.7057 27.204 36.0347C26.2653 36.1461 25.6373 35.7576 25.2042 34.9972ZM5.10062 13.5747C5.18832 13.5084 5.36154 13.5559 5.49688 13.5559H21.693C21.8143 13.5496 21.9359 13.5522 22.0568 13.5636C22.1869 13.573 22.3087 13.6319 22.3982 13.7286C22.4876 13.8253 22.5381 13.9527 22.5397 14.0856C22.5569 14.2178 22.5237 14.3517 22.447 14.4597C22.3702 14.5677 22.2558 14.6416 22.1272 14.6662C21.9818 14.6952 21.8334 14.7059 21.6854 14.6982C16.2885 14.6982 10.8909 14.6982 5.49257 14.6982C5.33233 14.6982 5.12336 14.728 5.02375 14.6419C4.86026 14.4984 4.66105 14.2622 4.67513 14.0812C4.6892 13.9002 4.92306 13.706 5.10062 13.5747ZM14.3512 28.6414C14.2982 29.0255 14.0394 29.1612 13.6886 29.1612H10.8963C9.0763 29.1612 7.25521 29.1612 5.43518 29.1546C5.23055 29.1546 4.97287 29.1182 4.8397 28.9902C4.70653 28.8622 4.65453 28.5951 4.68268 28.4064C4.72816 28.1106 4.98261 28.0124 5.26628 28.0124H9.5148C10.9039 28.0124 12.293 28.0124 13.6821 28.0124C14.1336 28.0124 14.4021 28.2651 14.3512 28.6381V28.6414ZM4.64589 23.7446C4.65455 23.4268 4.83644 23.2392 5.1515 23.206C5.27168 23.1939 5.39404 23.1972 5.5153 23.1972H13.497C13.6319 23.1918 13.767 23.1981 13.9008 23.216C14.0321 23.2294 14.1531 23.2947 14.2378 23.3978C14.3226 23.5009 14.3645 23.6337 14.3545 23.7678C14.3642 23.9015 14.3226 24.0339 14.2383 24.1368C14.154 24.2398 14.0338 24.3054 13.903 24.3196C13.7692 24.3386 13.6341 24.346 13.4991 24.3417H5.4774C5.36903 24.3451 5.26056 24.3417 5.15259 24.3317C4.82128 24.2799 4.63723 24.0801 4.64589 23.7413V23.7446ZM13.7406 19.51C12.9827 19.5177 12.2248 19.51 11.4756 19.51H9.45308C8.09104 19.51 6.729 19.5188 5.36696 19.5012C5.15704 19.5015 4.95295 19.4309 4.78665 19.3003C4.50839 19.0487 4.63505 18.5631 4.9891 18.424C5.11635 18.3806 5.2502 18.3608 5.3843 18.3655C8.12137 18.3655 10.8588 18.3655 13.5966 18.3655C13.6507 18.3655 13.7048 18.3655 13.7579 18.3655C14.1347 18.3964 14.3686 18.6227 14.3631 18.9504C14.3577 19.2782 14.1141 19.5023 13.7362 19.5067L13.7406 19.51Z" fill="#27416b"/>
<path d="M30.5625 19.8652V19.4657C30.5625 13.9475 30.5625 8.42939 30.5625 2.91124C30.5625 2.74569 30.5625 2.58015 30.5484 2.41571C30.4488 1.03617 29.3953 0.0108892 28.0376 0.00978562C20.6651 0.00389959 13.2927 0.00389959 5.92017 0.00978562C5.01395 0.00978562 4.31778 0.429166 3.80891 1.18295C3.73595 1.30735 3.67085 1.43637 3.61401 1.56922H15.671C18.6008 1.56922 21.5306 1.57584 24.4614 1.56922C25.2973 1.56922 26.0692 1.75243 26.7481 2.25458C27.8535 3.07127 28.305 4.20138 28.3018 5.57319C28.2899 10.2393 28.3018 14.9055 28.3018 19.5705C28.3018 19.7394 28.3158 19.9083 28.3202 20.0032L30.5625 19.8652Z" fill="#27416b"/>
<path d="M26.9019 31.2791C27.3349 31.0198 27.3826 31.0153 27.7886 31.2339C28.54 31.6389 29.2838 32.055 30.0406 32.4479C30.1171 32.4927 30.2016 32.5214 30.2892 32.5322C30.3768 32.543 30.4656 32.5357 30.5504 32.5108C30.6352 32.4859 30.7141 32.4438 30.7826 32.3871C30.8511 32.3304 30.9077 32.2602 30.949 32.1808C31.1255 31.8497 31.0237 31.48 30.6881 31.2515C30.5874 31.1831 30.478 31.1268 30.3708 31.0683C29.7537 30.7306 29.1311 30.4061 28.5183 30.0541C28.2238 29.8874 28.0983 29.627 28.2531 29.2904C28.3917 28.9869 28.7045 28.8986 29.0488 29.0542C29.1344 29.0939 29.2167 29.1414 29.3 29.1877L31.865 30.5926C32.4918 30.9348 32.874 30.9028 33.1025 30.49C33.3309 30.0773 33.1469 29.7097 32.5016 29.3533C31.6246 28.8688 30.7455 28.3876 29.8717 27.8976C29.5707 27.7276 29.4614 27.4628 29.6054 27.125C29.7375 26.8227 30.0612 26.7322 30.4001 26.8889C30.5083 26.9396 30.6166 26.9992 30.7249 27.0632C31.8639 27.6901 32.9986 28.3247 34.1462 28.9394C34.3303 29.0376 34.6724 29.1281 34.7633 29.0365C34.9171 28.882 34.995 28.5763 34.9799 28.3424C34.9449 28.115 34.8335 27.9071 34.6648 27.7541C34.3971 27.5024 34.1 27.2852 33.7802 27.1074C32.7625 26.5434 31.7026 26.0523 30.713 25.4409C30.072 25.0447 29.483 25.0568 28.8301 25.2963C28.2347 25.517 27.6392 25.7455 27.0275 25.9033C25.8072 26.2179 24.7971 25.8492 24.0132 24.8361C23.7967 24.5602 23.7631 24.2843 23.9558 24.0051C24.1255 23.7412 24.3168 23.4924 24.5275 23.2612C25.1652 22.5991 25.8213 21.9457 26.4959 21.2626C25.9747 21.0192 25.3943 20.9393 24.8285 21.033C24.1496 21.1356 23.4719 21.2659 22.7887 21.3255C22.4985 21.3519 22.3697 21.4358 22.282 21.7128C21.7579 23.4168 21.2133 25.1142 20.6785 26.8138C20.6265 26.9772 20.594 27.1449 20.5464 27.3358C21.9853 27.0257 22.5873 27.3358 23.1449 28.6536C24.1193 28.6425 24.7635 29.127 25.0515 30.1082C25.9004 30.0905 26.5348 30.4448 26.9019 31.2791Z" fill="#27416b"/>
<path d="M22.9587 7.89206V2.73479C22.8875 2.71764 22.8151 2.70619 22.7422 2.70058C20.7987 2.70058 18.8564 2.70058 16.914 2.69286C16.6043 2.69286 16.6076 2.8617 16.6087 3.08574C16.6087 4.6529 16.6087 6.22005 16.6087 7.78831C16.6165 7.89289 16.631 7.99686 16.652 8.09954C17.5723 7.46827 18.4547 6.86347 19.3382 6.25979C19.9499 5.84041 19.9607 5.84151 20.5898 6.27303C21.3682 6.80167 22.1359 7.327 22.9587 7.89206Z" fill="#27416b"/>
<path d="M25.0548 24.2644C25.0879 24.3195 25.1241 24.3725 25.1631 24.4234C25.6925 24.9575 26.3183 24.9531 26.9712 24.7467C27.7161 24.5105 28.4491 24.2291 29.2016 24.0227C29.8349 23.8495 30.4347 23.9775 31.0248 24.313C32.3825 25.0855 33.7673 25.8073 35.1716 26.5666C34.6064 25.0149 34.0423 23.4676 33.5215 22.0417C32.9748 21.9313 32.5244 21.8673 32.0913 21.7426C31.6932 21.6147 31.3028 21.4632 30.922 21.289C29.7526 20.7968 28.6483 20.9502 27.6988 21.768C26.7817 22.5516 25.935 23.4246 25.0548 24.2644Z" fill="#27416b"/>
<path d="M21.4765 20.5628C21.391 20.4878 21.2925 20.3421 21.1615 20.2958C20.6688 20.1115 20.1621 19.9647 19.6662 19.7914C19.3934 19.6932 19.2678 19.7991 19.1877 20.0541C18.4558 22.3805 17.7206 24.7059 16.9822 27.0301C16.8956 27.2994 16.9606 27.4407 17.2258 27.5223C17.6892 27.6647 18.157 27.8016 18.6063 27.9837C18.9852 28.1371 19.1325 28.0024 19.2451 27.6393C19.7593 25.9629 20.292 24.292 20.8204 22.62C21.0261 21.9622 21.2362 21.3144 21.4765 20.5628Z" fill="#27416b"/>
<path d="M39 27.0489C38.9697 26.9319 38.9599 26.8767 38.9405 26.8282C38.0981 24.5127 37.255 22.1951 36.4113 19.8753C36.3257 19.6402 36.1709 19.6016 35.963 19.6799C35.4574 19.8709 34.9539 20.064 34.4472 20.2527C34.2145 20.3388 34.1311 20.4735 34.2307 20.7262C34.3866 21.1058 34.5133 21.4987 34.654 21.8828C35.3426 23.7737 36.032 25.6646 36.722 27.5555C36.7967 27.7618 36.8508 27.9969 37.1637 27.8866C37.6921 27.6835 38.2259 27.4903 38.7499 27.2762C38.8603 27.2332 38.934 27.1129 39 27.0489Z" fill="#27416b"/>
<path d="M24.0652 30.4348C23.8486 30.2009 23.7166 29.9647 23.5152 29.8587C23.4545 29.8251 23.3877 29.8041 23.319 29.797C23.2502 29.7899 23.1808 29.7969 23.1147 29.8174C23.0486 29.838 22.9871 29.8717 22.9339 29.9167C22.8808 29.9617 22.8369 30.017 22.8049 30.0795C22.4238 30.7582 22.0546 31.4469 21.7222 32.151C21.5977 32.4092 21.6518 32.7447 21.9301 32.8716C22.1336 32.9644 22.5516 32.9986 22.6241 32.8871C23.1265 32.1157 23.566 31.3001 24.0652 30.4348Z" fill="#27416b"/>
<path d="M27.7561 37.2542C29.2015 37.1284 30.4055 35.4321 29.9562 34.3925C29.6714 34.654 29.404 35.0381 29.0402 35.197C28.6764 35.3559 28.2033 35.3018 27.7561 35.3438V37.2542Z" fill="#27416b"/>
<path d="M22.0579 28.8909C21.9128 28.7364 21.7688 28.4847 21.5555 28.3788C21.2762 28.2386 20.9882 28.3699 20.8301 28.6547C20.5638 29.1326 20.3072 29.617 20.0722 30.1104C20.0355 30.1843 20.0133 30.2648 20.0072 30.3474C20.001 30.4301 20.0108 30.5131 20.0362 30.5918C20.0615 30.6706 20.1018 30.7434 20.1548 30.8063C20.2078 30.8691 20.2725 30.9206 20.3451 30.958C20.4928 31.0309 20.6622 31.0434 20.8187 30.9929C20.9751 30.9424 21.1067 30.8327 21.1863 30.6865C21.4537 30.2097 21.6963 29.7175 21.9442 29.2308C21.9882 29.1197 22.0261 29.0062 22.0579 28.8909Z" fill="#27416b"/>
<path d="M24.6986 33.7877C24.7842 33.7303 25.0028 33.6574 25.097 33.5051C25.3671 33.0624 25.61 32.6032 25.8246 32.13C25.857 32.0576 25.875 31.9793 25.8776 31.8998C25.8802 31.8202 25.8674 31.741 25.8398 31.6665C25.8122 31.592 25.7705 31.5238 25.717 31.4659C25.6635 31.4079 25.5992 31.3613 25.528 31.3288C25.2161 31.1787 24.9206 31.246 24.7452 31.5363C24.4673 31.9901 24.2216 32.4637 24.01 32.9533C23.8411 33.3528 24.167 33.7799 24.6986 33.7877Z" fill="#27416b"/>
<path d="M26.1375 34.2402C26.155 34.3967 26.2191 34.544 26.3211 34.6623C26.423 34.7807 26.5581 34.8644 26.7081 34.9023C27.0188 34.9895 27.1671 34.7434 27.296 34.5139C27.4248 34.2843 27.5721 34.0647 27.6359 33.8197C27.6868 33.6232 27.6977 33.3385 27.5926 33.1972C27.5055 33.0807 27.3798 33.0006 27.2389 32.9717C27.098 32.9429 26.9517 32.9673 26.8272 33.0405C26.5381 33.1829 26.1321 33.8561 26.1375 34.2402Z" fill="#27416b"/>
<path d="M28.4415 34.2799C28.8389 34.6176 29.1864 34.5492 29.4528 34.121C29.757 33.6321 29.5156 33.1398 28.8692 32.843L28.4415 34.2799Z" fill="#27416b"/>
</g>
<defs>
<clipPath id="clip0_36_1357">
<rect width="39" height="40" fill="white"/>
</clipPath>
</defs>
</svg>
