<svg width="46" height="36" viewBox="0 0 46 36" fill="none" xmlns="http://www.w3.org/2000/svg">
<g clip-path="url(#clip0_75_654)">
<path d="M22.6374 23.9774C22.6364 22.4883 22.9293 21.0137 23.4994 19.638C24.0696 18.2624 24.9056 17.0128 25.9597 15.961C27.0138 14.9091 28.2651 14.0757 29.6419 13.5085C31.0188 12.9413 32.4941 12.6514 33.9831 12.6556C35.472 12.6566 36.9462 12.9508 38.3213 13.5216C39.6965 14.0923 40.9458 14.9283 41.9978 15.9819C43.0499 17.0355 43.8841 18.286 44.4528 19.6619C45.0216 21.0379 45.3137 22.5125 45.3125 24.0014C45.3109 25.4906 45.0158 26.9649 44.4441 28.34C43.8724 29.715 43.0353 30.964 41.9807 32.0155C40.9261 33.0669 39.6746 33.9002 38.2978 34.4678C36.921 35.0353 35.4459 35.326 33.9567 35.3232C32.4678 35.3237 30.9935 35.0304 29.6182 34.4601C28.243 33.8897 26.9938 33.0536 25.9422 31.9996C24.8907 30.9456 24.0575 29.6944 23.4904 28.3178C22.9233 26.9412 22.6334 25.4663 22.6374 23.9774ZM42.5631 28.7779L42.6387 28.6418C42.6387 27.6534 42.6387 26.6664 42.6299 25.6793C42.6299 25.5822 42.5038 25.4914 42.4496 25.3906C42.3614 25.2343 42.2126 25.0729 42.2088 24.9116C42.1874 23.811 42.1987 22.7105 42.1975 21.6087C42.1975 20.9128 42.0601 20.7262 41.3844 20.5485C38.8975 19.8871 36.4086 19.2298 33.9176 18.5768C33.6767 18.51 33.4232 18.5027 33.1789 18.5554C30.6109 19.2235 28.0493 19.9118 25.4889 20.5939C25.0994 20.6985 24.8372 20.9267 24.8397 21.3502C24.8422 21.7738 25.1032 22.0007 25.494 22.1066C25.9793 22.2327 26.4609 22.3814 26.9525 22.4848C27.2564 22.5491 27.3534 22.6865 27.3484 22.9891C27.3307 24.0266 27.3408 25.0641 27.3484 26.1016C27.3484 26.8076 27.5009 26.984 28.1854 27.1215C29.1095 27.303 30.0348 27.4845 30.9589 27.6585C32.2283 27.898 33.4978 28.1174 34.795 27.8741C36.1376 27.6219 37.4827 27.3799 38.8291 27.1265C39.5501 26.9904 39.6951 26.8139 39.6976 26.0852C39.6976 25.0464 39.709 24.0089 39.6976 22.9714C39.6976 22.6815 39.7859 22.5378 40.0657 22.4924C40.2637 22.4596 40.4591 22.4067 40.6961 22.3524C40.6961 23.1315 40.6961 23.8652 40.6961 24.6052C40.6961 24.9279 40.8221 25.3162 40.3494 25.4561C40.3103 25.4675 40.2737 25.5595 40.2737 25.615C40.2737 26.6311 40.2737 27.6459 40.2737 28.8321C41.068 28.014 41.8168 27.9762 42.5631 28.7779Z" fill="#00A2FF"/>
<path d="M26.6146 5.3199C28.7174 5.3199 30.7445 5.30225 32.7703 5.32873C33.0842 5.32972 33.385 5.45468 33.6072 5.67638C33.8293 5.89809 33.9549 6.1986 33.9566 6.51247C33.9881 8.03407 33.9667 9.55692 33.9667 11.0659C33.0704 11.1857 32.1917 11.2424 31.3395 11.4252C27.5828 12.2333 24.7363 14.3247 22.815 17.6439C22.5074 18.1734 22.1936 18.4268 21.5733 18.2957C20.8661 15.9194 19.313 14.5327 16.7526 14.5995C14.6095 14.6575 13.1484 15.9799 12.3984 18.3461C11.6811 18.2768 10.9486 18.2201 10.2187 18.1356C8.15505 17.9036 6.11028 17.5771 4.13612 16.9052C2.99272 16.5157 1.9426 15.9635 1.08033 15.0987C0.732043 14.7674 0.456223 14.3674 0.270273 13.9242C0.0843229 13.4809 -0.00771933 13.0039 -4.49765e-05 12.5232C0.0125614 10.6209 -4.49765e-05 8.71733 -4.49765e-05 6.81502C-4.49765e-05 5.80651 0.491605 5.31486 1.51272 5.3136C3.30536 5.3136 5.09799 5.3136 6.89062 5.3136H7.36462V5.85694C7.36462 7.05202 7.3558 8.25216 7.36462 9.44094C7.37723 10.7835 8.37313 11.8046 9.72706 11.8084C14.5553 11.8194 19.3832 11.8194 24.2106 11.8084C25.5834 11.8084 26.5894 10.7911 26.6058 9.42077C26.6209 8.24081 26.6058 7.06211 26.6058 5.88215L26.6146 5.3199Z" fill="#00A2FF"/>
<path d="M21.7751 19.8778C21.2902 21.3857 21.0735 22.967 21.1347 24.5497C21.2078 26.1401 21.5678 27.704 22.1974 29.1662H4.35557C2.51755 29.1662 1.5166 28.1741 1.5166 26.3512C1.5166 23.5358 1.5166 20.7203 1.5166 17.9049V17.4725C2.48351 17.8381 3.41513 18.2453 4.38078 18.544C6.58186 19.2248 8.85354 19.5626 11.1454 19.7328C11.9144 19.7896 12.4123 19.8854 12.6846 20.8182C13.2431 22.7306 15.2236 23.9699 17.1536 23.8438C19.3156 23.7177 21.0351 22.2919 21.5154 20.2384C21.5469 20.1047 21.5948 19.9736 21.6415 19.8412L21.7751 19.8778Z" fill="#00A2FF"/>
<path d="M25.1031 5.34639C25.1031 6.73309 25.1132 8.06433 25.1031 9.39935C25.0968 9.98555 24.7451 10.2982 24.1261 10.3007C22.6487 10.3007 21.1712 10.3007 19.6924 10.3007H10.0208C9.13836 10.3007 8.87614 10.0335 8.87488 9.14344C8.87488 7.8828 8.87488 6.6335 8.87488 5.34512L25.1031 5.34639Z" fill="#00A2FF"/>
<path d="M10.3234 3.77309C10.37 3.14277 10.341 2.53263 10.4734 1.96282C10.604 1.40622 10.9194 0.910333 11.3682 0.556127C11.8169 0.20192 12.3725 0.0103185 12.9442 0.0126017C15.6471 -0.00252601 18.3499 -0.00756857 21.0514 0.0126017C22.4545 0.0239475 23.5727 1.17491 23.6068 2.58179C23.6168 2.97133 23.6068 3.35961 23.6068 3.77436H21.2544C21.2544 3.46046 21.243 3.1516 21.2544 2.84526C21.2683 2.51372 21.1485 2.35235 20.7955 2.35235C18.2507 2.35908 15.705 2.35908 13.1585 2.35235C12.8333 2.35235 12.7047 2.49733 12.7123 2.80997C12.7198 3.12261 12.7123 3.4302 12.7123 3.76931L10.3234 3.77309Z" fill="#00A2FF"/>
<path d="M13.8671 19.2097C13.8661 18.3825 14.1932 17.5886 14.7767 17.0023C15.3602 16.416 16.1525 16.085 16.9796 16.082C17.3933 16.0825 17.8027 16.1648 18.1844 16.3243C18.5661 16.4837 18.9125 16.7171 19.2035 17.011C19.4946 17.3049 19.7247 17.6534 19.8804 18.0366C20.0362 18.4198 20.1146 18.8301 20.1111 19.2437C20.1031 20.071 19.7684 20.8617 19.1799 21.4433C18.5915 22.0249 17.7969 22.3504 16.9696 22.3487C16.1419 22.3437 15.3502 22.0102 14.7684 21.4215C14.1866 20.8329 13.8624 20.0373 13.8671 19.2097Z" fill="#00A2FF"/>
<path d="M38.1772 23.0319C38.1772 23.8791 38.1873 24.6922 38.1634 25.504C38.1634 25.5973 37.9806 25.7461 37.8633 25.7688C36.6619 26.0007 35.4681 26.244 34.2528 26.4193C32.9695 26.6058 31.7316 26.2478 30.4709 26.0285C30.0385 25.9528 29.6049 25.8797 29.18 25.7763C29.054 25.7423 28.8611 25.5898 28.8586 25.4851C28.8308 24.6884 28.8434 23.8904 28.8434 23.0143C29.2557 23.1164 29.6124 23.1983 29.9667 23.2916C31.013 23.5664 32.0543 23.8589 33.1057 24.1135C33.3772 24.1772 33.6598 24.1772 33.9314 24.1135C35.2248 23.7933 36.5107 23.4429 37.799 23.105C37.9074 23.071 38.0133 23.0609 38.1772 23.0319Z" fill="#00A2FF"/>
<path d="M38.3613 21.3742L37.0515 21.7284C35.9589 22.0167 34.8664 22.3045 33.7738 22.592C33.658 22.6369 33.533 22.6533 33.4095 22.6399C31.8513 22.2339 30.2957 21.8154 28.6102 21.3654C28.8472 21.2759 28.9619 21.2204 29.0842 21.1889C30.4617 20.8216 31.8408 20.4585 33.2217 20.0997C33.3687 20.0514 33.5253 20.0393 33.678 20.0644C35.1794 20.4539 36.6783 20.8573 38.1772 21.2595C38.2424 21.2913 38.304 21.3297 38.3613 21.3742Z" fill="#00A2FF"/>
</g>
<defs>
<clipPath id="clip0_75_654">
<rect width="45.31" height="35.3232" fill="white"/>
</clipPath>
</defs>
</svg>
