<svg width="39" height="40" viewBox="0 0 39 40" fill="none" xmlns="http://www.w3.org/2000/svg">
<g clip-path="url(#clip0_36_1302)">
<path d="M39 16.891C38.9235 17.003 38.8195 17.0917 38.6987 17.1482C38.578 17.2046 38.4449 17.2267 38.3131 17.2122C37.6944 17.1922 37.0747 17.2059 36.4153 17.2059V38.073H30.8662V17.2059C30.2109 17.2059 29.5932 17.227 28.9775 17.1954C28.7628 17.1838 28.4972 17.1027 28.3568 16.9511C28.1604 16.7405 28.3364 16.4941 28.4728 16.2793C29.9918 13.8925 31.509 11.5008 33.0246 9.10417C33.3818 8.54187 33.6352 8.54187 34.0147 9.10417L38.7018 16.0897C38.7955 16.2287 38.8982 16.3614 38.997 16.4972L39 16.891Z" fill="#27416b"/>
<path d="M8.37695 0.811859C10.0338 0.81186 11.6535 1.32015 13.0312 2.27249C14.409 3.22483 15.4829 4.57845 16.1174 6.16226C16.7518 7.74606 16.9182 9.48895 16.5956 11.1706C16.2729 12.8522 15.4757 14.3972 14.3047 15.6101C13.1337 16.823 11.6414 17.6494 10.0166 17.9849C8.39176 18.3204 6.70728 18.1499 5.17607 17.495C3.64486 16.84 2.33568 15.73 1.414 14.3053C0.492322 12.8806 -0.000465414 11.2051 -0.0020752 9.49062C-0.0020752 4.71951 3.77123 0.811859 8.37695 0.811859ZM8.83894 14.6261C10.2951 14.1354 11.0126 13.2477 11.04 11.9346C11.0706 10.5257 10.4122 9.6612 8.85929 9.06416V5.4208C9.61945 5.66194 10.0448 6.23477 10.1252 7.12139C10.1537 7.43728 10.2921 7.66368 10.6106 7.65736C10.9454 7.64999 11.0563 7.40359 11.039 7.08558C10.9861 6.11894 10.6055 5.33657 9.79448 4.82587C9.50751 4.64475 9.17781 4.53419 8.83691 4.37834C8.85523 4.04981 8.81045 3.66652 8.37186 3.66862C7.93327 3.67073 7.9119 4.06982 7.90579 4.41309C6.4099 4.95433 5.66094 5.79356 5.64567 7.04557C5.62634 8.6398 6.49742 9.54748 7.9007 9.98342V13.6099C7.53375 13.5161 7.20514 13.3039 6.96239 13.004C6.71965 12.7042 6.57534 12.3323 6.55033 11.942C6.51573 11.5482 6.34681 11.3334 6.06493 11.3818C5.73014 11.4408 5.61209 11.6819 5.63855 12.0136C5.7047 12.856 6.03542 13.5667 6.71213 14.049C7.07033 14.3049 7.48755 14.4702 7.9119 14.6935C7.90376 14.9778 7.96482 15.3 8.37288 15.3031C8.78094 15.3063 8.85014 14.9883 8.84098 14.6261H8.83894Z" fill="#27416b"/>
<path d="M24.2415 4.60701L22.1045 3.65932C21.9763 3.60245 21.8186 3.57402 21.728 3.47926C21.5957 3.33921 21.4329 3.15178 21.4319 2.98224C21.4319 2.85273 21.6354 2.66635 21.7881 2.59895C23.7032 1.76498 25.6255 0.948916 27.5457 0.127583C28.0891 -0.105129 28.2041 -0.0566906 28.432 0.512978L30.7553 6.32865C30.857 6.5761 30.9588 6.82672 30.7319 7.05732C30.5049 7.28793 30.2515 7.20474 29.9941 7.08575C29.2818 6.75406 28.5582 6.4329 27.8113 6.09489C27.7095 6.42026 27.6078 6.72668 27.506 7.04258C24.3931 16.7248 18.1603 23.4914 9.34367 27.835C8.38354 28.3097 7.40099 28.7342 6.39972 29.107C5.96596 29.2488 5.50721 29.2895 5.05647 29.226C4.65398 29.1829 4.27852 28.9963 3.99445 28.6981C3.71038 28.3999 3.5354 28.0088 3.49952 27.5917C3.41608 26.664 3.93201 25.8448 4.79596 25.4973C5.61005 25.1698 6.42414 24.8392 7.22704 24.4822C9.60667 23.4275 11.8438 22.0573 13.8822 20.4061C18.2061 16.9038 21.4461 12.5676 23.4101 7.2437C23.7297 6.38867 23.9627 5.50311 24.2415 4.60701Z" fill="#27416b"/>
<path d="M28.8555 38.073H23.3085V24.2788C23.3085 23.6007 23.398 23.508 24.0544 23.508C25.4495 23.508 26.8457 23.508 28.2419 23.508C28.6967 23.508 28.8677 23.6797 28.8677 24.1398C28.8677 28.7091 28.8677 33.2784 28.8677 37.8477C28.8677 37.9182 28.8606 37.9825 28.8555 38.073Z" fill="#27416b"/>
<path d="M21.2284 38.073H15.7088C15.7027 37.9425 15.6915 37.8171 15.6915 37.6908C15.6915 34.7508 15.6915 31.8105 15.6915 28.8699C15.6915 28.2749 15.8035 28.1591 16.3794 28.1581C17.8122 28.1581 19.2457 28.1581 20.6799 28.1581C21.1154 28.1581 21.2487 28.2802 21.2497 28.6972C21.2497 31.7824 21.2497 34.867 21.2497 37.9509C21.2452 37.992 21.238 38.0328 21.2284 38.073Z" fill="#27416b"/>
<path d="M13.7103 38.073H8.1674C8.1613 37.9446 8.15112 37.8193 8.15112 37.6929C8.15112 35.7765 8.15112 33.86 8.15112 31.9436C8.15112 31.3497 8.26407 31.2338 8.84106 31.2338H13.0275C13.5577 31.2338 13.7103 31.3886 13.7114 31.9267C13.7114 33.9664 13.7103 35.9976 13.7103 38.073Z" fill="#27416b"/>
<path d="M21.8644 39.0397H37.4339C37.5479 39.0397 37.6628 39.0397 37.7768 39.0397C38.0404 39.0555 38.2174 39.1966 38.2256 39.4746C38.2337 39.7526 38.0617 39.9326 37.789 39.9758C37.6876 39.9864 37.5855 39.9885 37.4837 39.9821H6.15146C6.03749 39.9821 5.88383 40.0242 5.81667 39.9653C5.65995 39.8263 5.45643 39.6494 5.44116 39.4651C5.42997 39.3366 5.67725 39.1555 5.84007 39.0502C5.93267 38.9912 6.08837 39.0365 6.21455 39.0365L21.8644 39.0397Z" fill="#27416b"/>
<path d="M7.91199 5.4187V8.94727C7.20678 8.82618 6.60029 8.0933 6.55348 7.31409C6.5026 6.45906 7.04295 5.68616 7.91199 5.4187Z" fill="#27416b"/>
<path d="M8.84509 13.6289V10.1003C9.47907 10.1824 10.0469 10.8721 10.1222 11.645C10.1705 12.0786 10.0687 12.5158 9.83486 12.879C9.60103 13.2423 9.25034 13.5079 8.84509 13.6289Z" fill="#27416b"/>
</g>
<defs>
<clipPath id="clip0_36_1302">
<rect width="39" height="40" fill="white"/>
</clipPath>
</defs>
</svg>
