<svg id="Layer_1" data-name="Layer 1" xmlns="http://www.w3.org/2000/svg" viewBox="0 0 313.92 353.15"><defs><style>.cls-1{fill:#27416b;}</style></defs><path class="cls-1" d="M261,0a7.75,7.75,0,0,1-.67,1.5C253.43,9.42,251,18.73,251,29.13q.12,156.85,0,313.72V348c-1.36-1-2.24-1.5-3-2.17-6.35-5.43-12.66-10.91-19-16.34-4.23-3.6-6.23-3.56-10.4,0l-27.5,23.64-17-14.57c-3.6-3.09-7.18-6.19-10.79-9.26-3.88-3.31-6-3.35-9.79-.09-8.34,7.13-16.74,14.21-24.94,21.5-2.2,1.95-3.56,2.14-5.85.1-8.19-7.31-16.58-14.39-24.93-21.52-4-3.39-6.07-3.32-10.1.14l-27.6,23.71c-9.27-8-18.35-15.76-27.44-23.55-4.4-3.77-6.13-3.78-10.64,0-6.18,5.25-12.33,10.54-18.49,15.81-.91.77-1.86,1.51-3.26,2.64-.09-1.79-.21-3-.21-4.17q0-157.8,0-315.6C0,14.46,6.94,4.41,18.91,1.1a29.72,29.72,0,0,1,7.74-1Q142.48,0,258.31,0ZM15.39,69.35A55.39,55.39,0,1,0,70.81,14,55.5,55.5,0,0,0,15.39,69.35Zm34.4,161.78c-6,0-12-.11-17.95,0-9.55.23-16.32,7.15-16.39,16.76-.09,11.6-.07,23.2,0,34.79.05,9.83,6.7,16.89,16.52,17.1q17.74.36,35.52,0c9.64-.19,16.48-7,16.65-16.65q.33-17.76,0-35.53c-.19-9.62-7.15-16.3-16.75-16.49C61.51,231,55.65,231.12,49.79,231.13Zm0-20.09c7,0,14,.08,20.94,0a13.15,13.15,0,0,0,13.4-13.21c.15-6.73.1-13.47,0-20.2-.07-4.16-2.28-6.46-5.75-6.33-3.31.11-5.23,2.37-5.26,6.38,0,6-.14,12,0,18,.1,3.24-1.09,4.39-4.34,4.36q-19.06-.19-38.14,0c-3,0-4.24-.93-4.22-4.06q.16-19.26,0-38.53c0-3.12,1.18-4.11,4.22-4.07,10.22.14,20.44.08,30.66,0,4.19,0,6.57-2,6.65-5.46s-2.31-5.65-6.41-5.68c-10.85-.06-21.69-.11-32.54,0-8.08.1-13.55,5.68-13.59,13.76q-.12,20.58,0,41.15c0,8.36,5.5,13.82,13.8,13.89C36.06,211.09,42.92,211.05,49.77,211Zm120.94,43.38h61.74a20.9,20.9,0,0,0,3.36-.08c2.92-.48,4.8-2.17,4.92-5.21s-1.58-4.92-4.48-5.61a14.26,14.26,0,0,0-3.34-.2H108.68a14.91,14.91,0,0,0-3.35.18c-2.88.66-4.62,2.45-4.54,5.53s1.92,4.77,4.82,5.31a18.8,18.8,0,0,0,3.36.08Zm.06-99.81H109.43a29,29,0,0,0-3.73.1c-3.21.41-5,2.32-4.89,5.53.07,3,1.81,4.81,4.84,5.19a26.88,26.88,0,0,0,3.36.09H232.44c1.36,0,3.13.41,4-.27,1.7-1.32,3.65-3.09,4.12-5,.65-2.64-1.22-4.73-4-5.39a18.61,18.61,0,0,0-4.1-.23ZM187.66,49.42q23.19,0,46.38,0c4.3,0,6.66-1.93,6.75-5.3.1-3.55-2.28-5.52-6.81-5.63-1,0-2,0-3,0H154.3c-4.74,0-9.48,0-14.22,0-3.33,0-5.5,1.57-6,4.94s2.15,6,6.41,6C156.23,49.44,171.94,49.42,187.66,49.42Zm10,25.38c12.21,0,24.43.14,36.64-.14a8.06,8.06,0,0,0,5.76-3c2.52-3.81-.84-7.85-6.4-7.86q-36.09-.06-72.18,0c-4.67,0-7.33,2.19-7.23,5.7s2.59,5.31,7.13,5.31Q179.52,74.82,197.66,74.8Zm1.22,113H163.35c-4.6,0-7,1.83-7.15,5.3s2.43,5.77,7.12,5.78q35.16,0,70.32,0c4.69,0,7.26-2.16,7.15-5.77s-2.53-5.3-7.13-5.31ZM144.8,287.53c12.71,0,25.42,0,38.12,0,4.16,0,6.45-2.21,6.28-5.71-.16-3.21-2.25-5.12-6.08-5.18-6.73-.09-13.45,0-20.18,0H109.86c-1.12,0-2.24,0-3.36,0-3.7.24-5.78,2.28-5.73,5.53s2.23,5.33,5.91,5.35C119.38,287.56,132.09,287.52,144.8,287.53Zm22.29-187.3q12.71,0,25.41,0c4.38,0,7-2.09,7-5.48s-2.6-5.56-7-5.57q-25.78,0-51.56,0c-4.39,0-7,2.15-7,5.54s2.58,5.5,7,5.51C149.66,100.25,158.38,100.23,167.09,100.23ZM45.69,180.45c-2-2.16-3.77-4.14-5.66-5.93-2.52-2.41-5.85-2.52-8-.44s-2.25,5.63.3,8.31c2.83,3,5.77,5.86,8.71,8.74,3.67,3.6,6.16,3.6,9.87-.08q9.81-9.75,19.56-19.55c2-2,4.17-4,6-6.16a5.05,5.05,0,0,0-.14-7.13c-2.16-2.37-4.78-2.51-7.39-.69a21.8,21.8,0,0,0-2.71,2.56Zm73.59,18.33c4.37,0,8.73.1,13.09,0,3.88-.11,6.09-2.33,6-5.69s-2.26-5.25-6-5.28q-12.72-.1-25.43,0c-3.89,0-6.19,2.16-6.19,5.47s2.22,5.42,6.17,5.51C111.05,198.86,115.17,198.79,119.28,198.78Zm104.51,88.73c3.74,0,7.48.09,11.21,0,3.56-.11,5.83-2.39,5.77-5.51a5.3,5.3,0,0,0-5.58-5.32q-11.22-.2-22.43,0c-3.7.06-5.77,2.24-5.71,5.51s2.22,5.24,5.9,5.34S220.18,287.52,223.79,287.51Zm3.35-187.29c2.61,0,5.23.08,7.84,0,3.34-.13,5.61-2.22,5.78-5.16a5.27,5.27,0,0,0-5.16-5.74c-5.47-.24-11-.26-16.42,0-3.12.15-4.93,2.31-5,5.48-.11,3,2.23,5.22,5.53,5.39C222.15,100.31,224.65,100.21,227.14,100.22Z"/><path class="cls-1" d="M313.86,71.19H262.68a5.66,5.66,0,0,1-.42-1.43c0-15.1-.23-30.2.12-45.29a25.65,25.65,0,0,1,48.1-11.14,26,26,0,0,1,3.23,11C314.06,39.75,313.86,55.22,313.86,71.19Z"/><path class="cls-1" d="M26.49,69.47a44.27,44.27,0,1,1,44.35,44.2A44.18,44.18,0,0,1,26.49,69.47ZM52,81.72c.46,5.84,4,10.49,10,13.25,1.92.89,3.23,1.62,3.32,4.16a5.23,5.23,0,0,0,5.57,5.31c3.29-.33,5-2.26,5.37-5.65a4.62,4.62,0,0,1,2.1-3.2c8-4,12.21-10.55,11-17.7-1.33-8-8.08-13.69-17.13-14.61a18.44,18.44,0,0,1-6.43-1.6,4.64,4.64,0,0,1-1.75-7.25c2.29-2.82,5.46-3.45,8.81-2.67,2.94.68,5.07,2.32,5.59,5.72.59,3.81,3.22,5.77,6.4,5.24s5.15-3.59,4.47-7.43C88.23,49,84.42,44.9,78.81,42.12a6.14,6.14,0,0,1-2.66-3.27c-.92-2.63-2.36-4.41-5.23-4.54-3-.13-4.68,1.58-5.71,4.39a7,7,0,0,1-2.95,3.54c-6.35,3.33-10.45,8-10.31,15.56.16,8.3,7.24,15.28,16.16,16.3,2.56.3,5.3.61,7.52,1.76,3.72,1.93,3.66,6,.27,8.51a8.21,8.21,0,0,1-13.09-4.84c-.81-3.41-3-5.13-6-4.79S52,77.35,52,81.72Z"/><path class="cls-1" d="M26.54,265.25c0-5.61-.06-11.23,0-16.84.06-4.32,1.85-6.2,6.15-6.23q17-.12,34,0c4.38,0,6.29,2.07,6.32,6.54q.07,16.65,0,33.29c0,4.59-2,6.69-6.62,6.72q-16.63.12-33.28,0c-4.65,0-6.56-2-6.61-6.65C26.49,276.47,26.54,270.86,26.54,265.25Z"/></svg>