<svg width="40" height="40" viewBox="0 0 40 40" fill="none" xmlns="http://www.w3.org/2000/svg">
<g clip-path="url(#clip0_8_85)">
<path d="M33.4549 26.9397C32.168 26.9397 30.9101 27.3213 29.8401 28.0362C28.7702 28.7511 27.9363 29.7673 27.4438 30.9562C26.9514 32.145 26.8225 33.4532 27.0736 34.7153C27.3246 35.9774 27.9443 37.1368 28.8542 38.0467C29.7641 38.9566 30.9234 39.5763 32.1855 39.8273C33.4476 40.0784 34.7558 39.9495 35.9447 39.4571C37.1336 38.9646 38.1497 38.1307 38.8647 37.0607C39.5796 35.9908 39.9612 34.7328 39.9612 33.446C39.9594 31.721 39.2734 30.0671 38.0536 28.8473C36.8338 27.6275 35.1799 26.9415 33.4549 26.9397ZM36.248 29.591C36.227 29.959 35.9909 30.1718 35.6262 30.1884C35.1984 30.2095 34.7683 30.1951 34.3405 30.1973C33.7419 30.1973 33.538 30.4001 33.5336 30.9854C33.5336 31.5096 33.5336 32.0339 33.5336 32.6247C33.8484 32.6247 34.1465 32.618 34.4425 32.6247C34.8858 32.6369 35.1529 32.8885 35.1407 33.2709C35.1286 33.6533 34.8769 33.8528 34.4391 33.8661C34.1631 33.875 33.8849 33.8772 33.61 33.8838C33.6001 33.8838 33.5901 33.9016 33.5325 33.9514V35.3103C33.5325 36.1117 33.5325 36.9142 33.5325 37.7167C33.5325 38.1722 33.2919 38.4383 32.9117 38.4394C32.5316 38.4405 32.2944 38.1811 32.2921 37.7222C32.2921 36.6016 32.2921 35.481 32.2921 34.3616V33.8672C31.9142 33.8672 31.6105 33.8772 31.3068 33.8672C30.9211 33.8517 30.6606 33.5934 30.6628 33.2498C30.665 32.9062 30.9288 32.6502 31.3134 32.6313C31.616 32.6169 31.9208 32.6313 32.2933 32.6313C32.2933 31.9962 32.2833 31.38 32.2933 30.7648C32.3099 29.9734 32.8065 29.213 33.5724 29.0734C34.295 28.9381 35.0543 28.9714 35.7958 28.9925C36.0973 28.9947 36.2669 29.2851 36.248 29.591Z" fill="#27416b"/>
<path d="M32.3365 4.78386V8.4837L35.5398 6.63378L32.3365 4.78386Z" fill="#27416b"/>
<path d="M33.4449 13.1091C35.1874 13.1076 36.8581 12.4141 38.0894 11.1811C39.3207 9.94813 40.012 8.27657 40.0111 6.53403C40.0029 4.79806 39.3074 3.136 38.0769 1.91149C36.8463 0.68697 35.1809 -0.000312384 33.4449 1.06515e-07C31.7107 0.00673039 30.0495 0.6994 28.8243 1.92675C27.599 3.15409 26.9091 4.8164 26.9053 6.55065C26.9088 8.28572 27.5983 9.949 28.8235 11.1776C30.0486 12.4063 31.7099 13.1006 33.4449 13.1091ZM31.0685 4.32055C31.0685 3.36954 31.7103 2.99047 32.5249 3.45821C33.8772 4.23336 35.2265 5.01293 36.5728 5.79694C37.3675 6.25914 37.3731 7.00621 36.5861 7.45954C35.2272 8.24946 33.8661 9.03569 32.5028 9.81822C31.7357 10.2616 31.0785 9.87918 31.0696 8.99579C31.0618 8.20993 31.0696 7.42297 31.0696 6.636C31.0696 5.84903 31.0641 5.09421 31.0674 4.32055H31.0685Z" fill="#27416b"/>
<path d="M4.0922 6.82776C4.24405 6.92309 4.4081 6.99735 4.56216 7.08713C5.05651 7.3742 5.07867 7.89072 4.60871 8.21881C4.47348 8.31302 4.32718 8.39172 4.13099 8.51032C5.94212 8.7852 7.66458 7.75328 8.21767 6.07183C8.40277 5.51098 8.51251 4.92907 8.94146 4.48017C9.00907 4.41034 9.02569 4.29063 9.08554 4.14765C8.76522 4.14765 8.47814 4.20196 8.22431 4.13324C7.97049 4.06452 7.7599 3.85946 7.51937 3.73532C7.40569 3.67642 7.28001 3.64439 7.152 3.6417C7.02399 3.639 6.89706 3.66572 6.781 3.71979C6.66493 3.77386 6.56284 3.85384 6.48255 3.95357C6.40225 4.05331 6.34591 4.17013 6.31787 4.29506C6.29101 4.44434 6.27692 4.59563 6.27575 4.74729C6.24915 5.25937 6.03523 5.47551 5.5298 5.4744C4.73883 5.47047 3.96561 5.23965 3.30191 4.80936C3.21656 4.75616 3.12678 4.71072 3.01151 4.64643C2.96385 5.62182 3.31078 6.3312 4.0922 6.82776Z" fill="#27416b"/>
<path d="M2.77766 11.2292H2.78654C3.71182 11.8203 4.77859 12.1526 5.87587 12.1916C6.97314 12.2306 8.06082 11.9748 9.02572 11.4509C9.98122 10.9253 10.7782 10.1529 11.3337 9.21442C11.8891 8.27592 12.1826 7.2056 12.1836 6.11506C12.1836 4.49824 11.5413 2.94765 10.398 1.80439C9.25477 0.661124 7.70417 0.0188465 6.08736 0.0188465C4.71913 0.0177676 3.39084 0.479935 2.31879 1.33009C2.10125 1.51238 1.89437 1.70704 1.69919 1.9131C1.39272 2.23413 1.11769 2.58377 0.877871 2.95722C0.297822 3.90676 -0.00900864 4.99793 -0.00885004 6.11062C-0.00885004 6.20151 -0.00885707 6.29129 -0.00220666 6.38218C0.046451 6.99555 0.177691 7.59954 0.387953 8.17779C0.82291 9.43244 1.66383 10.5062 2.77766 11.2292ZM1.90535 3.70761C1.9907 3.34294 2.15697 3.06806 2.54047 2.97052C2.90625 2.87631 3.18224 3.02705 3.4272 3.28752C3.84605 3.75683 4.41347 4.06793 5.03438 4.1687C5.08204 4.03126 5.11971 3.91488 5.16072 3.80071C5.26527 3.50033 5.43695 3.22774 5.6627 3.00369C5.88845 2.77964 6.16232 2.61003 6.46349 2.50775C6.76465 2.40548 7.08517 2.37323 7.40068 2.41347C7.71618 2.45371 8.01835 2.56538 8.28421 2.73997C8.54357 2.91067 8.7708 2.96165 9.05122 2.8364C9.45136 2.65684 9.83708 2.68677 10.1685 2.98936C10.4999 3.29196 10.542 3.68322 10.4168 4.09776C10.3447 4.33496 10.3059 4.59655 10.1696 4.79606C9.7473 5.43561 9.53116 6.15828 9.23965 6.85325C8.45822 8.71315 6.94747 9.58435 5.01109 9.77722C4.48238 9.83042 3.93816 9.75061 3.40391 9.70517C3.21135 9.67903 3.02424 9.62215 2.84971 9.53669C2.30992 9.30282 2.05166 8.90712 2.07383 8.38285C2.0971 7.83862 2.48727 7.68899 2.9395 7.60032C2.92667 7.55641 2.90683 7.51486 2.88075 7.47728C1.77567 6.42319 1.57172 5.13745 1.90535 3.70761Z" fill="#27416b"/>
<path d="M6.57835 32.8364C6.45633 32.8342 6.33645 32.8686 6.23411 32.9351C6.13177 33.0015 6.05165 33.0971 6.00404 33.2095C5.95644 33.3218 5.94352 33.4459 5.96696 33.5657C5.99039 33.6854 6.04912 33.7954 6.13557 33.8816C6.22202 33.9677 6.33226 34.026 6.45211 34.049C6.57196 34.072 6.69597 34.0586 6.80816 34.0106C6.92036 33.9626 7.01561 33.8821 7.08172 33.7795C7.14782 33.677 7.18174 33.5569 7.17911 33.4349C7.17985 33.3559 7.1648 33.2776 7.13485 33.2045C7.1049 33.1314 7.06064 33.065 7.00468 33.0093C6.94871 32.9535 6.88217 32.9095 6.80896 32.8798C6.73575 32.8501 6.65734 32.8354 6.57835 32.8364Z" fill="#27416b"/>
<path d="M6.60166 26.8909C5.30474 26.8844 4.03502 27.2627 2.95317 27.978C1.87131 28.6933 1.02596 29.7134 0.524072 30.9093C0.0221897 32.1052 -0.113661 33.4231 0.13371 34.6962C0.38108 35.9693 1.00055 37.1405 1.91374 38.0614C2.82693 38.9824 3.99278 39.6117 5.26377 39.8699C6.53477 40.128 7.85377 40.0033 9.05387 39.5116C10.254 39.0198 11.2812 38.1831 12.0056 37.1074C12.7301 36.0316 13.1191 34.7651 13.1235 33.4682C13.1262 31.7326 12.4417 30.0664 11.2196 28.834C9.99753 27.6015 8.33726 26.9029 6.60166 26.8909ZM10.9244 35.8324C10.9145 37.0251 10.1729 37.7865 8.98695 37.8009C7.3842 37.8194 5.78145 37.8194 4.1787 37.8009C2.99049 37.7887 2.23236 37.0328 2.22127 35.8501C2.20428 34.2467 2.20428 32.6432 2.22127 31.0397C2.23346 29.8537 2.99715 29.11 4.18203 29.0955C4.9834 29.0845 5.78478 29.0955 6.58616 29.0955C7.38753 29.0955 8.16119 29.0878 8.94926 29.0955C10.1585 29.11 10.9145 29.8537 10.9244 31.0652C10.9377 32.6539 10.9363 34.243 10.92 35.8324H10.9244Z" fill="#27416b"/>
<path d="M8.84616 30.3392C7.32617 30.3392 5.80692 30.3392 4.28841 30.3392C3.65662 30.3392 3.46044 30.5298 3.45822 31.1494C3.45379 32.682 3.45379 34.2153 3.45822 35.7493C3.45822 36.3633 3.66217 36.5562 4.29285 36.5606C5.0388 36.5606 5.78477 36.5606 6.53072 36.5606C7.27667 36.5606 8.04922 36.5606 8.80848 36.5606C9.49347 36.5606 9.67635 36.3777 9.67857 35.7027C9.67857 34.1975 9.67857 32.6919 9.67857 31.186C9.67635 30.5243 9.49679 30.3392 8.84616 30.3392ZM6.5684 35.3115C6.2003 35.3119 5.84033 35.2032 5.53396 34.9992C5.22759 34.7951 4.98856 34.5048 4.84709 34.165C4.70562 33.8252 4.66804 33.451 4.73911 33.0899C4.81017 32.7287 4.98669 32.3967 5.24636 32.1358C5.50602 31.8749 5.83719 31.6968 6.19802 31.624C6.55886 31.5512 6.93317 31.587 7.27367 31.7269C7.61417 31.8667 7.90558 32.1044 8.11109 32.4097C8.31659 32.7151 8.42699 33.0746 8.4283 33.4427C8.4286 33.9368 8.23299 34.4108 7.88434 34.7609C7.5357 35.111 7.06248 35.3086 6.5684 35.3104V35.3115Z" fill="#27416b"/>
<path d="M17.9372 19.7539C17.9568 20.2918 18.1851 20.8009 18.5737 21.1734C18.9623 21.5458 19.4806 21.7523 20.0188 21.7491C20.5565 21.7502 21.0735 21.5418 21.46 21.1681C21.8466 20.7943 22.0723 20.2847 22.0893 19.7473C22.1015 19.3605 22.1004 18.9714 22.0893 18.5868C22.0801 18.0776 21.8835 17.5896 21.5371 17.2162C21.1907 16.8428 20.7188 16.6102 20.2117 16.5628C19.7188 16.511 19.2238 16.6396 18.8186 16.925C18.4134 17.2104 18.1254 17.633 18.0082 18.1146C17.9262 18.4471 17.935 18.7963 17.8973 19.1388H17.9284C17.9361 19.3394 17.9273 19.5467 17.9372 19.7539Z" fill="#27416b"/>
<path d="M22.2689 22.5161C22.1871 22.4566 22.0885 22.4246 21.9873 22.4246C21.8862 22.4246 21.7876 22.4566 21.7058 22.5161C20.5841 23.1589 19.4447 23.16 18.323 22.5161C18.2416 22.4563 18.1435 22.4235 18.0425 22.4223C17.9415 22.4211 17.8427 22.4515 17.7599 22.5094C16.7102 23.1245 15.9476 24.1311 15.6395 25.3081C15.5664 25.5664 15.6185 25.7338 15.8612 25.8967C17.0754 26.7448 18.5178 27.2058 19.9989 27.219C21.49 27.2154 22.9447 26.7572 24.1687 25.9056C24.4015 25.7448 24.4646 25.5841 24.3904 25.3203C24.0793 24.1431 23.3171 23.1356 22.2689 22.5161Z" fill="#27416b"/>
<path d="M24.9956 14.7816C23.6333 13.4763 21.8128 12.7583 19.9262 12.7821C18.0397 12.8059 16.238 13.5698 14.9091 14.9091C12.0627 17.7699 12.2667 22.1026 14.5422 24.6575C14.9877 23.2955 15.9156 22.1432 17.1514 21.4176C16.6692 20.3347 16.6437 20.1696 16.6903 18.5147C16.7206 17.656 17.0815 16.8421 17.6976 16.2432C18.3137 15.6442 19.1374 15.3064 19.9967 15.3004C20.8636 15.2974 21.6975 15.6332 22.3205 16.2361C22.9435 16.839 23.3064 17.6614 23.3318 18.528C23.354 19.5167 23.4283 20.5176 22.8508 21.4188C24.1521 22.1836 24.9867 23.2787 25.501 24.6509C27.9993 21.9153 27.7488 17.4196 24.9956 14.7816Z" fill="#27416b"/>
<path d="M33.4549 25.6096C33.5713 25.6096 33.6866 25.6096 33.8018 25.6185C33.861 25.5899 33.9131 25.5485 33.9543 25.4973C33.9955 25.4462 34.0248 25.3865 34.0401 25.3225C35.3303 21.7949 35.3377 18.2661 34.0623 14.7362C33.9515 14.4425 33.8306 14.3427 33.5081 14.3438C32.4759 14.3512 31.4525 14.1533 30.4975 13.7616C29.5425 13.3699 28.6748 12.7923 27.945 12.0623C27.2152 11.3323 26.6378 10.4645 26.2464 9.50935C25.855 8.5542 25.6574 7.53077 25.6651 6.49856C25.6651 6.21149 25.6019 6.06629 25.3115 5.96099C21.3951 4.54445 17.536 4.68337 13.7342 6.37775C13.5292 6.46864 13.4826 6.59278 13.4305 6.80005L13.3673 7.04722C13.2709 7.81145 13.0539 8.55555 12.7245 9.25183C12.7156 9.27843 12.7078 9.30504 12.6979 9.33164C12.6835 9.36901 12.662 9.40325 12.6347 9.4325C12.1697 10.3497 11.5185 11.1598 10.7227 11.8111C10.6531 11.8851 10.5766 11.9522 10.4944 12.0118C9.74496 12.5698 8.89416 12.9768 7.98937 13.2099C7.59005 13.3186 7.18214 13.3927 6.77013 13.4316C6.55621 13.4848 6.43761 13.6112 6.34229 13.8351C5.47552 15.7958 5.03992 17.8475 5.01221 20.1607C5.03561 21.9177 5.36183 23.6576 5.97652 25.3037C6.08736 25.5897 6.22369 25.6617 6.51299 25.6628C6.9824 25.6569 7.45137 25.694 7.91401 25.7737C11.7701 26.5119 14.3427 29.6276 14.3594 33.5801C14.3594 33.8318 14.4436 33.9393 14.6708 34.0235C18.2258 35.3285 21.7797 35.331 25.3325 34.0313C25.3951 34.016 25.4537 33.9877 25.5046 33.9482C25.5554 33.9086 25.5972 33.8587 25.6274 33.8018C25.6274 33.6843 25.6185 33.5657 25.6185 33.4471C25.6206 31.3693 26.4468 29.3772 27.9159 27.9078C29.3851 26.4385 31.3771 25.612 33.4549 25.6096ZM20.01 28.4649C15.3869 28.4649 11.5618 24.6453 11.5507 20.0211C11.5483 17.7766 12.4361 15.6229 14.0194 14.0321C15.6027 12.4413 17.7523 11.5434 19.9967 11.5351C22.2409 11.5345 24.3938 12.4239 25.9833 14.0082C27.5728 15.5925 28.4692 17.7425 28.476 19.9867C28.4826 24.6298 24.652 28.4649 20.01 28.4649Z" fill="#27416b"/>
</g>
<defs>
<clipPath id="clip0_8_85">
<rect width="40.0089" height="40" fill="white"/>
</clipPath>
</defs>
</svg>
