<svg width="37" height="40" viewBox="0 0 37 40" fill="none" xmlns="http://www.w3.org/2000/svg">
<g clip-path="url(#clip0_36_1329)">
<path d="M18.5047 -0.00228882H37.0001V35.1676H36.7198C30.5425 35.1676 24.3653 35.1702 18.1881 35.1755C17.9117 35.1755 17.8175 35.0627 17.7248 34.8317C16.7565 32.3932 15.1245 30.5602 12.8286 29.3329C12.7313 29.2812 12.641 29.217 12.5352 29.1512C18.6923 25.0549 16.7002 15.4112 9.27515 14.1575V9.37124H18.5039L18.5047 -0.00228882ZM23.1245 15.2514C23.2094 16.6766 23.831 17.7213 25.0549 18.3509C25.3544 18.5075 25.4602 18.6555 25.4471 18.9891C25.4193 19.6853 25.4386 20.3838 25.4386 21.0807H27.7504C27.7504 20.3485 27.7674 19.6351 27.7427 18.9233C27.7327 18.6289 27.8346 18.5012 28.0886 18.3752C29.3241 17.7573 30.0113 16.7307 30.0453 15.3399C30.0792 13.9492 29.4685 12.8904 28.277 12.1817C27.7288 11.8552 27.1281 11.7651 26.5088 11.7119C26.2234 11.6922 25.9557 11.5649 25.7582 11.355C25.5607 11.1452 25.4478 10.868 25.4417 10.578C25.4379 10.2953 25.5337 10.0205 25.712 9.80318C25.8902 9.58581 26.1391 9.44013 26.4138 9.39238C26.9837 9.29371 27.5281 9.6555 27.7057 10.2538C27.7335 10.3485 27.7566 10.4449 27.7829 10.5302H30.0283C30.1109 9.29372 29.2917 7.9656 28.084 7.40961C27.8192 7.28744 27.735 7.14494 27.7443 6.85676C27.7667 6.14572 27.7512 5.4331 27.7512 4.71423H25.4417V7.23498C25.3328 7.28823 25.2409 7.33287 25.1498 7.37907C23.9043 8.00554 23.1878 9.02355 23.1469 10.4292C23.1059 11.8348 23.7352 12.9288 24.9645 13.6359C25.505 13.9492 26.0965 14.0275 26.7019 14.0784C26.9868 14.1027 27.2524 14.2343 27.4464 14.4474C27.6403 14.6605 27.7485 14.9395 27.7497 15.2295C27.7486 15.5121 27.6481 15.7851 27.4664 15.9994C27.2847 16.2137 27.0336 16.3552 26.7582 16.3986C26.2007 16.484 25.6679 16.1293 25.4919 15.5529C25.4626 15.4558 25.4402 15.3572 25.4147 15.2522L23.1245 15.2514ZM32.3579 23.4738H18.5363V25.7722H32.3579V23.4738ZM18.5232 30.4543H32.3447V28.1551H18.5232V30.4543Z" fill="#00A2FF"/>
<path d="M16.1766 40H0.0324081C-0.199238 36.6672 0.804562 33.8692 3.55729 31.9491C6.24515 30.0752 9.15538 29.9131 11.9954 31.5427C15.1882 33.3712 16.3974 36.3281 16.1766 40Z" fill="#00A2FF"/>
<path d="M8.0991 16.4135C9.63286 16.4168 11.1027 17.037 12.1861 18.1381C13.2694 19.2392 13.8779 20.7311 13.8779 22.2866C13.8722 23.8416 13.2587 25.3307 12.1719 26.4276C11.0851 27.5245 9.61381 28.1395 8.08057 28.1378C6.55389 28.1296 5.09218 27.5103 4.01344 26.4146C2.9347 25.319 2.32619 23.8357 2.32031 22.2874C2.3201 20.7318 2.92845 19.2396 4.01186 18.1384C5.09526 17.0371 6.5652 16.4168 8.0991 16.4135Z" fill="#00A2FF"/>
<path d="M16.1727 0.859039V7.00704H10.116L16.1727 0.859039Z" fill="#00A2FF"/>
</g>
<defs>
<clipPath id="clip0_36_1329">
<rect width="37" height="40" fill="white"/>
</clipPath>
</defs>
</svg>
