<svg width="39" height="40" viewBox="0 0 39 40" fill="none" xmlns="http://www.w3.org/2000/svg">
<g clip-path="url(#clip0_85_592)">
<path d="M23.0626 40.0032C22.7461 39.9611 22.4341 39.8903 22.1304 39.7918C20.881 39.3112 19.6412 38.8083 18.4078 38.2925C17.8792 38.0714 17.8408 37.7735 18.2893 37.3827C19.8067 36.0839 21.1048 34.5489 22.1336 32.8368C22.6878 31.9013 22.1784 30.8377 21.1405 30.7577C20.4998 30.7064 20.0737 31.0524 19.7533 31.5842C18.6889 33.3164 17.3075 34.8325 15.6816 36.0532C15.0248 36.5561 15.0152 36.5754 14.3232 36.1397C13.123 35.3836 11.9312 34.6094 10.748 33.8171C10.6686 33.7619 10.6022 33.69 10.5535 33.6064C10.5048 33.5229 10.475 33.4297 10.4661 33.3333C10.4996 33.2387 10.5537 33.1528 10.6247 33.0819C10.6957 33.0109 10.7816 32.9567 10.8762 32.9233C11.9042 32.5395 12.8572 31.979 13.6921 31.267C14.3521 30.7096 14.4738 29.9856 14.0125 29.3705C13.8986 29.2195 13.7542 29.0942 13.5888 29.0025C13.4234 28.9108 13.2405 28.8548 13.0521 28.8382C12.8637 28.8216 12.6739 28.8447 12.495 28.9061C12.3161 28.9674 12.152 29.0656 12.0135 29.1943C10.6872 30.3636 9.06936 30.7673 7.40029 31.0556C7.29879 31.0621 7.19701 31.0484 7.1008 31.0154C7.00459 30.9824 6.91584 30.9308 6.83966 30.8634C5.73763 29.8639 4.64947 28.8515 3.5752 27.8264C3.25138 27.5436 3.01994 27.1701 2.91085 26.7543C2.80175 26.3385 2.82002 25.8995 2.96332 25.4942C3.08766 25.0566 3.3348 24.6638 3.67545 24.3623C4.01611 24.0608 4.43602 23.8633 4.88547 23.7931C8.40012 23.1745 11.6603 21.551 14.272 19.119C14.3778 18.9953 14.5268 18.9165 14.6887 18.8986C14.8505 18.8808 15.0131 18.9252 15.1434 19.0229C20.4079 21.7823 25.6746 24.5342 30.9435 27.2786C31.3055 27.4676 31.4496 27.6726 31.2862 28.0923C29.8854 31.7385 28.0949 35.2229 25.9459 38.4847C25.2891 39.4458 24.3985 39.9616 23.0626 40.0032Z" fill="#27416b"/>
<path d="M33.6088 0.0160217C36.9021 0.0160217 39.1318 3.41182 37.687 6.37194C36.1556 9.50825 34.5154 12.5933 32.8367 15.6623C32.4907 16.3031 32.4555 16.6843 32.7919 17.3186C33.2247 18.137 33.4883 19.0342 33.567 19.9566C33.6457 20.8791 33.5379 21.8079 33.25 22.6878C33.0802 23.2484 32.872 23.7995 32.6701 24.3505C32.4683 24.9015 32.3113 24.9912 31.7667 24.6965L23.1779 20.2114L17.3634 17.1744C16.7483 16.8541 16.7227 16.6747 17.1808 16.1461C18.0297 15.185 18.8563 14.1791 19.9775 13.4935C21.1988 12.7216 22.6051 12.2923 24.0493 12.2505C24.2148 12.2595 24.3787 12.2147 24.5167 12.1229C24.6546 12.0311 24.7593 11.8972 24.8149 11.7412C26.3783 8.69134 27.9513 5.64793 29.5338 2.61093C30.4052 0.913028 31.8564 0.0160217 33.6088 0.0160217Z" fill="#27416b"/>
<path d="M9.20715 13.2821C9.21064 13.5399 9.16221 13.7958 9.06475 14.0346C8.9673 14.2733 8.82281 14.49 8.63987 14.6717C8.45694 14.8534 8.23932 14.9965 7.99995 15.0924C7.76058 15.1883 7.50436 15.235 7.24656 15.2299C6.86097 15.228 6.48458 15.1118 6.16494 14.8962C5.8453 14.6805 5.59674 14.375 5.45064 14.0181C5.30454 13.6613 5.26746 13.2691 5.34408 12.8912C5.4207 12.5133 5.60759 12.1666 5.88114 11.8948C6.15469 11.6231 6.50263 11.4385 6.88103 11.3643C7.25943 11.2902 7.65131 11.3298 8.00719 11.4783C8.36307 11.6267 8.66699 11.8773 8.88056 12.1983C9.09413 12.5194 9.20778 12.8965 9.20715 13.2821Z" fill="#27416b"/>
<path d="M1.94134 21.2206C1.55785 21.2168 1.18405 21.0997 0.86694 20.884C0.549832 20.6683 0.303581 20.3637 0.159155 20.0084C0.0147287 19.6531 -0.0214215 19.2631 0.0552492 18.8873C0.13192 18.5116 0.317987 18.1669 0.590052 17.8966C0.862118 17.6263 1.20803 17.4425 1.58429 17.3683C1.96055 17.2941 2.35035 17.3328 2.70467 17.4795C3.05898 17.6263 3.362 17.8745 3.5756 18.193C3.78921 18.5115 3.90385 18.8861 3.90513 19.2696C3.90471 19.5268 3.85354 19.7813 3.75454 20.0187C3.65555 20.256 3.51068 20.4715 3.32824 20.6527C3.1458 20.834 2.92937 20.9775 2.69138 21.0749C2.45339 21.1723 2.19851 21.2218 1.94134 21.2206Z" fill="#27416b"/>
</g>
<defs>
<clipPath id="clip0_85_592">
<rect width="38.1355" height="40" fill="white"/>
</clipPath>
</defs>
</svg>
