<svg width="41" height="40" viewBox="0 0 41 40" fill="none" xmlns="http://www.w3.org/2000/svg">
<g clip-path="url(#clip0_85_585)">
<path d="M17.8193 29.1057H10.4735C10.1557 29.1482 9.83245 29.1169 9.52875 29.0142C9.22504 28.9115 8.94912 28.7401 8.72242 28.5134C8.49572 28.2867 8.32434 28.0108 8.22162 27.7071C8.1189 27.4034 8.08759 27.0801 8.13013 26.7623C8.08681 25.6897 8.12518 24.6153 8.24491 23.5485C8.3906 22.5968 8.80039 21.705 9.42769 20.9746C10.055 20.2441 10.8746 19.7043 11.7935 19.4165C12.7499 19.0722 13.7064 18.7757 14.6629 18.4601C14.7496 18.4364 14.8403 18.4311 14.9292 18.4442C15.0181 18.4574 15.1033 18.4888 15.1794 18.5366C16.5069 19.4966 18.1035 20.0134 19.7418 20.0134C21.3801 20.0134 22.9767 19.4966 24.3042 18.5366C24.4577 18.4396 24.6426 18.4054 24.8207 18.4409C25.7772 18.747 26.7337 19.0627 27.6901 19.3974C28.7292 19.7717 29.6307 20.4517 30.276 21.348C30.9213 22.2442 31.2803 23.3148 31.3056 24.4189C31.3181 24.4746 31.3186 24.5322 31.3071 24.588C31.2956 24.6439 31.2723 24.6966 31.2388 24.7427C31.2054 24.7889 31.1624 24.8274 31.1129 24.8557C31.0634 24.8839 31.0085 24.9013 30.9517 24.9067C29.9032 25.1804 28.9194 25.6595 28.0574 26.3163C27.1954 26.973 26.4724 27.7944 25.9302 28.7327C25.8782 28.8375 25.7953 28.924 25.6927 28.9804C25.5901 29.0368 25.4728 29.0605 25.3563 29.0483L17.8193 29.1057Z" fill="#27416b"/>
<path d="M38.2019 26.3319L37.0445 25.5954C37.2454 24.6389 37.4941 23.6824 37.6471 22.6781C38.4123 17.9627 37.8193 13.4864 35.0933 9.45C32.6784 5.89811 29.0547 3.34519 24.8972 2.26684C20.5882 0.945079 15.9476 1.21666 11.8221 3.03203C9.63741 3.97966 7.68327 5.38819 6.09349 7.16121C4.50371 8.93424 3.31585 11.0299 2.61123 13.3046C1.87269 15.3856 1.4754 17.5722 1.43476 19.78C1.39106 22.0546 1.80837 24.3146 2.66152 26.4236C3.51466 28.5327 4.786 30.4471 6.39889 32.0516C8.21197 34.0227 10.4383 35.5687 12.9186 36.579C15.3989 37.5893 18.0718 38.039 20.7461 37.8957C22.4431 37.8223 24.1181 37.4834 25.7102 36.8914L26.4563 38.0488C21.1 40.4591 11.8508 39.9043 5.19372 32.8168C-2.35291 24.7824 -0.803409 13.4959 4.57201 6.9249C10.7317 -0.602602 22.1999 -2.21906 30.6935 3.15636C38.8331 8.33092 41.0617 19.2922 38.2019 26.3319Z" fill="#27416b"/>
<path d="M33.1707 40C31.3239 40 29.5528 39.2664 28.247 37.9605C26.9411 36.6547 26.2075 34.8836 26.2075 33.0368C26.2075 31.1901 26.9411 29.419 28.247 28.1131C29.5528 26.8073 31.3239 26.0736 33.1707 26.0736C35.0174 26.0736 36.7886 26.8073 38.0944 28.1131C39.4002 29.419 40.1339 31.1901 40.1339 33.0368C40.1339 34.8836 39.4002 36.6547 38.0944 37.9605C36.7886 39.2664 35.0174 40 33.1707 40ZM33.1707 34.0029C33.3907 34.242 33.5533 34.4333 33.735 34.6054C34.2993 35.1793 34.8637 35.7532 35.4471 36.3175C35.5743 36.4437 35.7462 36.5145 35.9253 36.5145C36.1045 36.5145 36.2764 36.4437 36.4036 36.3175C36.5232 36.187 36.5896 36.0164 36.5896 35.8393C36.5896 35.6622 36.5232 35.4916 36.4036 35.3611C36.2984 35.2367 36.174 35.1219 36.0593 35.0072L34.0889 33.0942L36.1549 31.0378C36.6714 30.5213 36.7479 30.0813 36.4036 29.7752C36.0593 29.4691 35.6767 29.5074 35.1697 30.0143L34.5767 30.6169L33.0655 32.1664C32.9779 32.0132 32.8754 31.869 32.7594 31.736C32.1186 31.0856 31.4777 30.4448 30.8464 29.823C30.7257 29.6903 30.5573 29.6108 30.3781 29.6018C30.1988 29.5929 30.0234 29.6552 29.89 29.7752C29.818 29.8407 29.7605 29.9204 29.7212 30.0093C29.6819 30.0983 29.6616 30.1945 29.6616 30.2917C29.6616 30.389 29.6819 30.4851 29.7212 30.5741C29.7605 30.663 29.818 30.7428 29.89 30.8082C30.0047 30.9326 30.1195 31.0378 30.2439 31.1621L32.2142 33.1325C32.0707 33.2472 31.956 33.3142 31.8603 33.4098C31.2003 34.0507 30.5308 34.6915 29.9473 35.3802C29.8642 35.4856 29.8042 35.6074 29.7712 35.7376C29.7383 35.8678 29.7331 36.0035 29.7561 36.1358C29.8044 36.2461 29.8781 36.3435 29.9712 36.4199C30.0643 36.4964 30.1741 36.5498 30.2917 36.5758C30.5523 36.5717 30.8017 36.4691 30.9899 36.2888C31.6786 35.5237 32.3577 34.7872 33.1707 34.0029Z" fill="#27416b"/>
<path d="M26.0832 12.3195C26.0506 14.0076 25.357 15.6156 24.1516 16.7978C22.9461 17.98 21.3249 18.6421 19.6365 18.6418C18.3725 18.6304 17.1403 18.2443 16.0957 17.5324C15.0512 16.8204 14.2413 15.8147 13.7686 14.6423C13.2958 13.47 13.1815 12.1838 13.4399 10.9464C13.6984 9.70907 14.318 8.57618 15.2205 7.6911C16.123 6.80602 17.2678 6.20852 18.5099 5.97422C19.7521 5.73991 21.0358 5.87932 22.1987 6.37482C23.3616 6.87031 24.3514 7.6996 25.0429 8.75778C25.7343 9.81597 26.0964 11.0555 26.0832 12.3195Z" fill="#27416b"/>
</g>
<defs>
<clipPath id="clip0_85_585">
<rect width="40.1052" height="40" fill="white"/>
</clipPath>
</defs>
</svg>
