<svg id="Layer_1" data-name="Layer 1" xmlns="http://www.w3.org/2000/svg" viewBox="0 0 69.59 68.87"><defs><style>.cls-1{fill:#27416b;}</style></defs><path class="cls-1" d="M34.82,57.07l-2.22-.15a2.51,2.51,0,0,1-2.45-2.4c-.1-1-.2-2-.28-3A2.25,2.25,0,0,0,26.1,49.9l-2.22,1.87a2.5,2.5,0,0,1-3.7,0c-1.07-1-2.09-2-3.07-3.07a2.4,2.4,0,0,1,0-3.46c.63-.79,1.28-1.57,1.93-2.35a2.19,2.19,0,0,0,.43-2.36,2.15,2.15,0,0,0-1.94-1.41c-.92-.1-1.83-.15-2.75-.22-1.92-.16-2.74-1-2.84-2.88-.06-1.3-.06-2.61,0-3.91a2.5,2.5,0,0,1,2.48-2.67c.89-.12,1.78-.18,2.67-.25a2.4,2.4,0,0,0,2.32-1.43,2.35,2.35,0,0,0-.64-2.65c-.61-.69-1.2-1.39-1.78-2.11a2.41,2.41,0,0,1,0-3.41c1-1.13,2.09-2.21,3.21-3.24a2.42,2.42,0,0,1,3.36-.06c.81.64,1.6,1.32,2.4,2a2.19,2.19,0,0,0,2.43.42,2.23,2.23,0,0,0,1.36-2.05c.07-1,.18-2,.27-3a2.43,2.43,0,0,1,2.38-2.38c1.51-.06,3-.07,4.55,0a2.45,2.45,0,0,1,2.49,2.42c.09,1,.2,2,.28,3a2.25,2.25,0,0,0,3.69,1.62c.8-.66,1.58-1.34,2.38-2a2.44,2.44,0,0,1,3.53,0q1.66,1.5,3.18,3.17a2.4,2.4,0,0,1,.05,3.41c-.65.81-1.34,1.59-2,2.4A2.23,2.23,0,0,0,52,29c.9.13,1.82.17,2.74.24,2,.13,2.85.94,3,2.92.06,1.28,0,2.56,0,3.84a2.51,2.51,0,0,1-2.52,2.71c-.84.1-1.68.18-2.52.23a2.49,2.49,0,0,0-2.42,1.41A2.4,2.4,0,0,0,50.86,43c.61.68,1.2,1.39,1.78,2.11a2.41,2.41,0,0,1,0,3.36c-1,1.14-2.12,2.24-3.26,3.28a2.41,2.41,0,0,1-3.36,0c-.81-.65-1.6-1.32-2.4-2a2.15,2.15,0,0,0-2.43-.38,2.21,2.21,0,0,0-1.33,2c-.07,1-.17,2.07-.27,3.1a2.48,2.48,0,0,1-2.27,2.34C36.48,57,35.66,57,34.82,57.07ZM47,34.06A12.22,12.22,0,1,0,34.8,46.3,12.23,12.23,0,0,0,47,34.06Z"/><path class="cls-1" d="M61.93,19.18a14.14,14.14,0,0,1-6.37-1.72,2,2,0,0,1-1.17-2.59,7.69,7.69,0,0,1,15.17.4,1.94,1.94,0,0,1-1,2.06A13.84,13.84,0,0,1,61.93,19.18Z"/><path class="cls-1" d="M7.48,19.17a13.91,13.91,0,0,1-6.27-1.73A2,2,0,0,1,.09,14.9a7.88,7.88,0,0,1,7.5-6.28,7.88,7.88,0,0,1,7.56,6.12,2.14,2.14,0,0,1-1.21,2.77A14.31,14.31,0,0,1,7.48,19.17Z"/><path class="cls-1" d="M62,68.87a13.81,13.81,0,0,1-6.4-1.68,2.09,2.09,0,0,1-1.18-2.71,7.69,7.69,0,0,1,15.14.46,2,2,0,0,1-1,2.12A13.58,13.58,0,0,1,62,68.87Z"/><path class="cls-1" d="M7.45,68.86a13.51,13.51,0,0,1-6.17-1.67A2,2,0,0,1,.1,64.56a7.82,7.82,0,0,1,7.54-6.21,7.84,7.84,0,0,1,7.52,6.16A2.11,2.11,0,0,1,14,67.21,14,14,0,0,1,7.45,68.86Z"/><path class="cls-1" d="M35,2A31.92,31.92,0,0,1,53.7,8.16a1.53,1.53,0,0,1,.57.7c0,.19-.13.62-.28.65a1.49,1.49,0,0,1-1-.1,57.14,57.14,0,0,0-5.77-3.3C36.63,1.64,26.52,2.68,17,9.14l-.35.25c-.41.31-.85.46-1.21,0s-.09-.86.35-1.14c1.35-.85,2.65-1.78,4-2.53A32,32,0,0,1,35,2Z"/><path class="cls-1" d="M34.46,66.16a31.84,31.84,0,0,1-17.68-5.55l-.24-.16c-.39-.27-.57-.63-.28-1.05s.67-.4,1.08-.15c1.22.73,2.4,1.55,3.68,2.16q15.74,7.44,30.56-1.73L52,59.4c.44-.31.93-.58,1.31,0s0,.89-.48,1.16c-1.25.74-2.46,1.54-3.75,2.19A32.19,32.19,0,0,1,34.46,66.16Z"/><path class="cls-1" d="M4,53.27A3.6,3.6,0,1,1,7.58,56.9,3.6,3.6,0,0,1,4,53.27Z"/><path class="cls-1" d="M65.53,53.36a3.59,3.59,0,0,1-3.64,3.54,3.61,3.61,0,1,1,3.64-3.54Z"/><path class="cls-1" d="M7.61,7.18a3.59,3.59,0,1,1,3.63-3.55A3.58,3.58,0,0,1,7.61,7.18Z"/><path class="cls-1" d="M62,7.18a3.59,3.59,0,1,1,3.58-3.59A3.59,3.59,0,0,1,62,7.18Z"/><path class="cls-1" d="M2.71,34A31.52,31.52,0,0,1,4.78,22.7c0-.09.08-.18.11-.27.15-.49.47-.77,1-.58s.53.58.37,1.07c-.48,1.52-1,3-1.35,4.57A30.2,30.2,0,0,0,6.14,44.93c.2.53.57,1.18-.23,1.48S5,46,4.78,45.42A31.69,31.69,0,0,1,2.71,34Z"/><path class="cls-1" d="M66.94,34.07a33.94,33.94,0,0,1-2.23,11.54c0,.06,0,.13-.07.2-.17.46-.45.8-1,.61s-.52-.64-.38-1.14c.58-2.06,1.29-4.1,1.67-6.2a29.61,29.61,0,0,0-1.34-15.4l-.24-.6c-.2-.49-.3-1,.3-1.23s.88.18,1.05.69c.29.89.66,1.77.89,2.68a39.12,39.12,0,0,1,.89,4.17C66.73,30.94,66.8,32.51,66.94,34.07Z"/><path class="cls-1" d="M42.25,35.35v3.88c0,.53,0,1.05,0,1.58a.85.85,0,0,1-1,.95h-13a.86.86,0,0,1-1-.95v-5.5a5.05,5.05,0,0,0,2,.48c1.17.2,2.34.36,3.54.54,0,.18,0,.34,0,.51a1,1,0,0,0,1,1H35.7a1,1,0,0,0,1-1v-.48l1.49-.24c1.09-.16,2.17-.31,3.25-.49A6.48,6.48,0,0,0,42.25,35.35Z"/><path class="cls-1" d="M32.86,35.62l-3.34-.5-1.3-.2a1,1,0,0,1-.89-1v-3a.82.82,0,0,1,.86-.85c.73,0,1.46,0,2.2,0h.26c0-.29,0-.55,0-.81a2.17,2.17,0,0,1,2.2-2.16c1.29,0,2.59,0,3.88,0a2.17,2.17,0,0,1,2.2,2.22c0,.24,0,.48,0,.74h2.46a.82.82,0,0,1,.86.85c0,1,0,2,0,3a1,1,0,0,1-.86,1l-4.57.7h-.09V35a1,1,0,0,0-1-1c-.6,0-1.21,0-1.82,0a1,1,0,0,0-1,1C32.85,35.21,32.86,35.41,32.86,35.62Zm-1.48-5.55h6.85v-.75a1.45,1.45,0,0,0-1.48-1.49c-1.31,0-2.62,0-3.92,0A1.43,1.43,0,0,0,31.39,29,6.34,6.34,0,0,0,31.38,30.07Z"/><path class="cls-1" d="M36,35.93v.83c0,.27-.12.39-.39.39H33.93c-.25,0-.37-.12-.37-.38v-1.7c0-.27.11-.38.37-.38h1.73c.25,0,.36.11.36.36S36,35.63,36,35.93Z"/></svg>