<svg width="41" height="40" viewBox="0 0 41 40" fill="none" xmlns="http://www.w3.org/2000/svg">
<g clip-path="url(#clip0_85_576)">
<path d="M40.1844 9.33468C39.4269 10.3952 38.6568 11.4531 37.9119 12.5211C37.8389 12.6573 37.8065 12.8115 37.8185 12.9655C37.8185 14.2053 37.8185 15.4475 37.8185 16.7529C37.4196 16.6343 37.1115 16.5484 36.8085 16.4525C35.9374 16.1798 35.0688 15.8894 34.1927 15.6369C33.9721 15.5758 33.7391 15.5758 33.5185 15.6369C32.4783 15.945 31.4506 16.2808 30.4154 16.604C30.2689 16.6494 30.12 16.6848 29.9104 16.7403C29.9104 15.7884 29.8599 14.8845 29.9255 13.9907C29.9666 13.5519 29.9179 13.1094 29.7825 12.6901C29.6471 12.2708 29.4277 11.8834 29.1378 11.5516C28.557 10.8522 28.0697 10.0745 27.5193 9.29681C28.7363 8.88525 29.9104 8.49641 31.0744 8.08232C31.2881 8.00096 31.4758 7.86307 31.6173 7.68337C32.2965 6.8047 32.9504 5.91593 33.6145 5.01452C33.6902 4.911 33.771 4.81505 33.867 4.69638C34.6396 5.73665 35.3819 6.7441 36.1394 7.7465C36.2277 7.87289 36.3491 7.9725 36.4904 8.03434C37.672 8.44591 38.8613 8.84232 40.048 9.24126C40.0992 9.24763 40.1509 9.24763 40.202 9.24126L40.1844 9.33468Z" fill="#00A2FF"/>
<path d="M5.89062 40V28.0899C6.6885 28.2313 7.46618 28.3676 8.24134 28.509C11.6323 29.1251 15.0233 29.7513 18.4168 30.3573C18.7425 30.4154 18.8132 30.5416 18.8057 30.8395C18.788 31.5314 18.8057 32.2232 18.8057 32.9428H21.1513V31.1198C21.1513 30.4381 21.1513 30.433 21.7977 30.3144L33.9401 28.1101C33.9754 28.1068 34.0109 28.1068 34.0462 28.1101V39.995L5.89062 40Z" fill="#00A2FF"/>
<path d="M34.0665 18.8688V21.9619C34.0665 23.0855 34.0665 24.2116 34.0665 25.3352C34.0665 25.6054 34.0084 25.7114 33.718 25.7644C29.7303 26.4781 25.746 27.2019 21.765 27.9359C21.6226 27.9523 21.4817 27.9793 21.3433 28.0167C20.0985 28.4308 18.8891 28.0621 17.6771 27.8424C13.8443 27.1506 10.0165 26.4462 6.18615 25.7518C6.01193 25.719 5.86548 25.719 5.86548 25.4665C5.86548 23.322 5.86548 21.1766 5.86548 19.0304C5.87493 18.9787 5.8893 18.9279 5.90841 18.8789H14.0867C14.0867 18.0129 14.1144 17.1897 14.0867 16.3717C14.0564 16.1959 14.0909 16.0151 14.1838 15.8628C14.2766 15.7106 14.4215 15.5971 14.5916 15.5435C16.445 14.6976 18.3513 14.0992 20.4141 14.2002C22.2459 14.3231 24.0295 14.8399 25.6433 15.7152C25.699 15.7603 25.7444 15.8167 25.7767 15.8807C25.8089 15.9447 25.8271 16.0148 25.8301 16.0864C25.8453 16.8438 25.8301 17.6291 25.8301 18.4017V18.8714L34.0665 18.8688ZM23.4895 18.8688C23.4895 18.3891 23.5021 17.9346 23.4895 17.4801C23.4726 17.4239 23.4434 17.3721 23.4041 17.3285C23.3648 17.2848 23.3164 17.2504 23.2623 17.2276C22.2237 16.7883 21.1075 16.562 19.9799 16.562C18.8522 16.562 17.736 16.7883 16.6974 17.2276C16.6116 17.263 16.4803 17.3412 16.4778 17.4044C16.4576 17.8917 16.4778 18.3815 16.4778 18.8714L23.4895 18.8688Z" fill="#00A2FF"/>
<path d="M13.6472 4.5979C14.7986 4.20906 15.9197 3.82023 17.0433 3.45663C17.3558 3.36888 17.628 3.17518 17.8134 2.90873C18.5077 1.94168 19.2273 0.994824 19.9671 0C20.1666 0.252493 20.3534 0.504987 20.5352 0.75748C21.0958 1.51496 21.6487 2.27244 22.2244 3.02992C22.3606 3.19832 22.5393 3.32733 22.742 3.40361C23.9085 3.81518 25.0852 4.20402 26.2971 4.61306C26.2037 4.75698 26.133 4.87817 26.0446 4.98927C25.4109 5.88562 24.767 6.7744 24.1459 7.68337C24.0196 7.87345 23.9472 8.09422 23.9363 8.32218C23.9035 9.4079 23.9035 10.4936 23.8909 11.5794C23.8909 11.7207 23.8757 11.8596 23.8631 12.0515C23.6106 11.9758 23.3581 11.9126 23.1334 11.8419C22.1992 11.549 21.27 11.241 20.3282 10.9708C20.0961 10.9065 19.8508 10.9065 19.6187 10.9708C18.5784 11.2738 17.5482 11.6122 16.513 11.9354C16.3792 11.9758 16.2429 12.0061 16.0636 12.0515C16.0636 11.8798 16.0409 11.7409 16.0383 11.6021C16.0257 10.4886 16.0207 9.37761 15.9929 8.26664C15.9875 8.07556 15.9279 7.88993 15.8212 7.73135C15.1899 6.8148 14.5385 5.91592 13.8947 5.00947C13.8214 4.8706 13.7482 4.7595 13.6472 4.5979Z" fill="#00A2FF"/>
<path d="M10.2916 16.7605C9.30691 16.455 8.39289 16.2277 7.51421 15.8843C7.13927 15.7269 6.73669 15.6457 6.33002 15.6457C5.92335 15.6457 5.52076 15.7269 5.14582 15.8843C4.27472 16.2252 3.36322 16.455 2.39364 16.7555C2.39364 16.0889 2.39364 15.493 2.39364 14.8693C2.39364 14.1245 2.51737 13.3316 2.2977 12.6499C2.07803 11.9682 1.50487 11.4379 1.0832 10.8395C0.732239 10.3345 0.376222 9.84218 -0.00756836 9.30185C0.982206 8.96603 1.91391 8.60244 2.87338 8.33733C3.55681 8.16909 4.14805 7.74173 4.52216 7.14556C5.07007 6.31738 5.69626 5.54475 6.31486 4.71152C6.39819 4.80746 6.47394 4.88321 6.53959 4.96401C7.21879 5.87551 7.8879 6.79206 8.57973 7.69599C8.71204 7.86303 8.88629 7.99198 9.08472 8.06968C10.2538 8.48124 11.4304 8.87261 12.66 9.28922C12.5085 9.50384 12.3772 9.69321 12.2434 9.88006C11.6551 10.7108 11.0567 11.5364 10.476 12.3772C10.355 12.5568 10.2868 12.7668 10.279 12.9832C10.2841 14.2204 10.2916 15.4501 10.2916 16.7605Z" fill="#00A2FF"/>
</g>
<defs>
<clipPath id="clip0_85_576">
<rect width="40.1818" height="40" fill="white"/>
</clipPath>
</defs>
</svg>
