<svg width="46" height="40" viewBox="0 0 46 40" fill="none" xmlns="http://www.w3.org/2000/svg">
<g clip-path="url(#clip0_36_1317)">
<path d="M0 1.03021C0.302115 0.247735 0.906345 0 1.71903 0C9.98691 0.0181269 18.2548 0.0181269 26.5227 0C27.7825 0 28.2326 0.450153 28.2326 1.71299V10.6435C27.2219 10.8671 26.273 11.3106 25.4532 11.9426C24.2931 12.8407 23.4685 14.1026 23.1118 15.5257C23.0242 15.861 22.9094 15.9728 22.5559 15.9728C18.2397 15.9728 13.9214 15.9879 9.6012 16.0181C8.63443 16.0181 7.67068 16.0181 6.70693 16.0453C5.69787 16.0846 5.08156 16.994 5.44712 17.858C5.52784 18.0755 5.66703 18.2664 5.84934 18.4098C6.03166 18.5532 6.25 18.6435 6.48035 18.6707C6.68084 18.6947 6.88266 18.7058 7.08458 18.7039H17.4381C17.2115 19.4955 16.8489 20.2477 16.8067 21.0181C16.7009 22.9517 16.4683 24.9184 17.0151 26.8127C17.2586 27.6928 17.3736 28.6036 17.3565 29.5166C17.3565 31.2085 17.3565 32.8973 17.3565 34.6526H16.8731C11.8248 34.6526 6.77945 34.6526 1.73111 34.6526C0.915402 34.6526 0.323256 34.3958 0.012078 33.6163L0 1.03021ZM14.1269 5.35348H7.76133C7.35952 5.35348 6.95771 5.33233 6.55287 5.35348C6.34635 5.36991 6.14665 5.43505 5.97016 5.54356C5.79367 5.65206 5.64542 5.80085 5.53753 5.97771C5.42964 6.15458 5.3652 6.3545 5.34948 6.56108C5.33377 6.76765 5.36723 6.97501 5.44712 7.16616C5.73413 7.83384 6.30211 8.00302 6.97582 8.00302C11.7251 8.00302 16.4743 8.00302 21.2236 8.00302C21.4166 8.00509 21.6096 7.99196 21.8006 7.96375C22.0149 7.92952 22.2167 7.84026 22.3861 7.7047C22.5556 7.56913 22.6869 7.39189 22.7674 7.19033C23.1722 6.28399 22.5045 5.33837 21.423 5.33535C18.9879 5.35045 16.571 5.3565 14.1269 5.35348ZM14.142 10.6979H8.35346C7.77642 10.6979 7.19637 10.6767 6.61933 10.6979C6.39931 10.7048 6.18458 10.7669 5.99481 10.8785C5.80505 10.99 5.64635 11.1475 5.53327 11.3363C5.4202 11.5252 5.35638 11.7394 5.34766 11.9594C5.33894 12.1793 5.3856 12.398 5.48337 12.5952C5.78549 13.1994 6.32931 13.3656 6.96677 13.3625H21.2598C21.4379 13.3646 21.6157 13.3515 21.7915 13.3233C22.0136 13.2907 22.2229 13.1993 22.3977 13.0585C22.5725 12.9177 22.7064 12.7327 22.7855 12.5227C23.1662 11.6163 22.5015 10.71 21.4441 10.71C19.0091 10.6918 16.571 10.6979 14.1541 10.6979H14.142ZM8.28096 24.0544C8.78549 24.0544 9.29002 24.0695 9.79153 24.0544C10.6556 24.0272 11.2417 23.4502 11.2175 22.6767C11.1934 21.9033 10.6133 21.3958 9.75226 21.3897C8.77341 21.3897 7.79456 21.3897 6.81571 21.3897C5.9426 21.3897 5.34441 21.9396 5.34139 22.716C5.33837 23.4925 5.91842 24.0242 6.76434 24.0544C7.26887 24.0695 7.77643 24.0544 8.28096 24.0544Z" fill="#27416b"/>
<path d="M36.426 30.5317C36.426 30.1178 36.426 29.7915 36.426 29.4683C36.4288 29.3001 36.3984 29.1329 36.3366 28.9764C36.2748 28.82 36.1828 28.6772 36.0658 28.5563C35.9488 28.4353 35.8092 28.3387 35.6548 28.2717C35.5004 28.2048 35.3344 28.1689 35.1662 28.1662C33.3414 28.142 31.5166 28.142 29.6919 28.1662C29.3521 28.1709 29.0278 28.3093 28.7892 28.5512C28.5506 28.7932 28.4169 29.1194 28.4169 29.4592C28.4018 29.7976 28.4169 30.139 28.4169 30.5287L25.2991 29.6767C24.2991 29.3988 23.2961 29.139 22.3021 28.8399C21.457 28.6075 20.7138 28.0991 20.191 27.3956C19.6682 26.6921 19.3957 25.834 19.4169 24.9577C19.4169 23.9638 19.4169 22.9698 19.4169 21.9758C19.4169 19.9396 20.71 18.6526 22.7583 18.6526H32.5831C35.7764 18.6526 38.9668 18.7009 42.1571 18.6344C44.2961 18.5922 45.7009 20.2115 45.5952 22.0755C45.5257 23.284 45.6314 24.5166 45.4894 25.719C45.4289 26.3998 45.1666 27.047 44.736 27.5777C44.3054 28.1084 43.7262 28.4984 43.0725 28.6979C40.9033 29.3746 38.6828 29.9094 36.426 30.5317Z" fill="#27416b"/>
<path d="M20.0664 30.8429C22.7704 31.9064 25.6193 32.429 28.4139 33.3293C28.4139 33.7734 28.4139 34.2357 28.4139 34.719C28.4139 35.577 28.9244 36.142 29.7794 36.1571C31.5438 36.1813 33.3091 36.1813 35.0755 36.1571C35.9305 36.1571 36.4199 35.5801 36.426 34.713C36.426 34.2538 36.426 33.8067 36.426 33.3142C39.2507 32.4079 42.1661 31.9215 44.9728 30.8248C44.9728 31.8761 44.9728 32.9396 44.9728 33.9728C45.0073 34.9807 44.978 35.9898 44.8852 36.994C44.763 37.7942 44.3683 38.5277 43.7677 39.0705C43.1671 39.6132 42.3976 39.932 41.5891 39.9728C41.3686 39.9909 41.145 40 40.9244 40H24.0483C23.2142 40.0495 22.3854 39.8383 21.6767 39.3958C21.195 39.0948 20.795 38.6794 20.5125 38.1866C20.23 37.6938 20.0736 37.1388 20.0574 36.571C20.009 34.7039 20.0574 32.8308 20.0574 30.9638C20.055 30.9232 20.0581 30.8826 20.0664 30.8429Z" fill="#27416b"/>
<path d="M39.1148 15.9366H25.9003C25.937 15.8137 25.9825 15.6935 26.0362 15.577C26.7945 14.2508 27.9305 13.4985 29.4622 13.4622C31.4954 13.423 33.5256 13.429 35.5589 13.4622C36.331 13.4722 37.0824 13.7132 37.7162 14.1542C38.35 14.5952 38.8371 15.216 39.1148 15.9366Z" fill="#27416b"/>
<path d="M33.7282 33.4683H31.1149V30.855H33.7282V33.4683Z" fill="#27416b"/>
</g>
<defs>
<clipPath id="clip0_36_1317">
<rect width="45.6103" height="40" fill="white"/>
</clipPath>
</defs>
</svg>
